<svg version="1.2" xmlns="http://www.w3.org/2000/svg" viewBox="0 0 110 123" width="110" height="123">
	<title>noun-challenge-6661313-svg</title>
	<style>
		tspan { white-space:pre } 
		.s0 { fill: #000000 } 
		.t1 { font-size: 5px;fill: #000000;font-family: "Arbeit  Regular" } 
	</style>
	<path id="Layer" fill-rule="evenodd" class="s0" d="m39.6 86.4v18.7c0 0.9-0.7 1.6-1.6 1.6h-8.8c-0.5 0-0.9-0.1-1.2-0.4-0.3-0.3-0.4-0.7-0.4-1.2v-18.7c0-0.9 0.7-1.6 1.6-1.6h8.8c0.9 0 1.6 0.7 1.6 1.6zm-3.2 1.5h-5.7v15.7h5.7zm17.5-12.4c0.3 0.3 0.4 0.7 0.4 1.1v28.4c0 0.9-0.7 1.6-1.6 1.6h-8.8c-0.4 0-0.8-0.1-1.1-0.4-0.3-0.3-0.5-0.7-0.5-1.2v-28.4c0-0.4 0.2-0.8 0.5-1.1 0.3-0.3 0.7-0.5 1.1-0.5h8.8c0.5 0 0.9 0.2 1.2 0.5zm-2.7 2.6h-5.7v25.4h5.7zm17.9-9.4v36.3c0 0.8-0.7 1.5-1.6 1.5h-8.8c-0.5 0-0.9-0.1-1.2-0.4-0.3-0.3-0.4-0.7-0.4-1.1v-36.3c0-0.9 0.7-1.6 1.5-1.6h8.9c0.9 0 1.6 0.7 1.6 1.6zm-3.2 1.6h-5.7v33.1h5.7zm17.5-8.4c0.2 0.3 0.4 0.7 0.4 1.1v42c0 0.9-0.7 1.6-1.6 1.6h-8.8c-0.4 0-0.8-0.2-1.1-0.5-0.3-0.3-0.5-0.7-0.5-1.1v-42c0-0.4 0.2-0.8 0.5-1.1 0.2-0.3 0.7-0.5 1.1-0.5h8.8c0.5 0 0.9 0.2 1.2 0.5zm-2.7 2.7h-5.7v38.8h5.7zm17.4-10.6c0.3 0.3 0.4 0.7 0.4 1.1v50c0 0.8-0.7 1.5-1.5 1.5h-8.9c-0.4 0-0.8-0.1-1.1-0.4-0.3-0.3-0.5-0.7-0.5-1.1v-50c0-0.4 0.2-0.8 0.5-1.1 0.3-0.3 0.7-0.4 1.1-0.4h8.9c0.4 0 0.8 0.1 1.1 0.4zm-2.7 2.7h-5.7v46.8h5.7zm-22.3-11.3q-1.7 2.3-4 4c-0.9 0.7-2.3 0.6-3.2-0.3l-0.9-0.9q-1.5 0.7-3 1.2v1.4c0 1.2-0.9 2.2-2.1 2.4q-2.8 0.4-5.7 0c-1.2-0.2-2.1-1.2-2.1-2.4v-1.4q-1.5-0.5-2.9-1.3l-1 1c-0.9 0.9-2.2 1-3.2 0.2q-1.6-1.2-3-2.7l-4.9 4.8c-1.6 1.7-4.2 2-6.2 0.8v5.9l4.6 1.2c2.2 0.6 3.6 2.6 3.6 4.8v15.1c0 2.8-2.2 5-4.9 5-2.7 0-4.9-2.2-4.9-5v-11.3l-1-0.3-7.7 13.2c-1.3 2.4-4.3 3.2-6.7 1.8-2.3-1.3-3.1-4.3-1.8-6.7l8.9-15.4v-19.3c0-2 1.2-3.8 3.1-4.6 1.8-0.7 3.9-0.3 5.3 1.1l4 3.6 4.2-4.1q-0.4-0.5-0.5-1.1-0.3-2.8 0-5.6c0.2-1.2 1.2-2.1 2.5-2.1h1.4q0.4-1.6 1.2-3l-1-1c-0.8-0.8-0.9-2.2-0.2-3.2q1.7-2.2 4-3.9c1-0.8 2.3-0.7 3.2 0.2l1 0.9q1.4-0.7 2.9-1.2v-1.4c0-1.2 0.9-2.2 2.1-2.4q2.9-0.4 5.7 0c1.2 0.2 2.1 1.2 2.1 2.4v1.4q1.5 0.5 2.9 1.3l1-1c0.9-0.8 2.3-0.9 3.2-0.2q2.3 1.7 4 4c0.7 1 0.7 2.3-0.2 3.2l-1 0.9q0.8 1.5 1.2 3h1.4c1.2 0 2.3 0.9 2.4 2.1q0.4 2.8 0 5.7c-0.1 1.2-1.2 2-2.4 2h-1.4q-0.4 1.6-1.2 3l1 1c0.8 0.9 0.9 2.2 0.2 3.2zm-8.2-26.9h0.1q0 0-0.1 0zm-21.3 22.1c0.3-0.3 0.5-0.8 0.5-1.2 0-0.5-0.2-1-0.5-1.3-0.3-0.3-0.8-0.5-1.2-0.5-0.5 0-1 0.2-1.3 0.5l-6.6 6.5c-0.6 0.6-1.6 0.6-2.2 0l-5.1-4.6-0.1-0.1c-0.5-0.5-1.3-0.6-1.9-0.4-0.7 0.3-1.1 1-1.1 1.7v19.8q0 0.4-0.2 0.8l-9 15.8c-0.2 0.4-0.3 0.9-0.2 1.3 0.1 0.5 0.4 0.8 0.8 1.1 0.4 0.2 0.9 0.2 1.4 0.1 0.4-0.1 0.8-0.4 1-0.8l8.2-14.3c0.3-0.5 0.8-0.8 1.4-0.8q0.2 0 0.4 0l3.4 0.9c0.6 0.2 1.1 0.8 1.1 1.6v12.5c0 0.5 0.2 1 0.5 1.4 0.3 0.3 0.8 0.6 1.3 0.6 0.5 0 0.9-0.3 1.3-0.6 0.3-0.4 0.5-0.9 0.5-1.4v-15.1c-0.1-0.8-0.6-1.5-1.4-1.7l-5.8-1.6c-0.7-0.1-1.2-0.8-1.2-1.5v-10.6c0-0.6 0.4-1.2 1-1.4 0.5-0.3 1.2-0.2 1.7 0.2l2 1.9c0.8 0.6 1.8 0.6 2.5-0.1l0.1-0.1zm28.3-5.5h2q0.1-0.9 0.1-1.8 0-0.9-0.1-1.7h-2c-0.7 0-1.3-0.6-1.5-1.3-0.4-1.5-1-3-1.8-4.3-0.4-0.6-0.3-1.4 0.2-2l1.4-1.3q-1.1-1.4-2.5-2.5l-1.4 1.3c-0.5 0.6-1.3 0.7-1.9 0.3-1.3-0.9-2.8-1.5-4.3-1.8-0.7-0.2-1.3-0.8-1.3-1.6v-1.9q-1.7-0.2-3.5 0v2c0 0.7-0.5 1.3-1.2 1.5-1.6 0.4-3 1-4.3 1.8-0.7 0.4-1.5 0.3-2-0.2l-1.4-1.4q-1.4 1.1-2.5 2.5l1.4 1.4c0.5 0.5 0.6 1.3 0.2 1.9-0.8 1.4-1.4 2.8-1.8 4.4-0.1 0.7-0.8 1.2-1.5 1.2h-2q-0.1 0.9-0.1 1.8 0 0.8 0.1 1.7c0.7-0.4 1.5-0.6 2.2-0.6 1.3 0 2.6 0.5 3.5 1.5q0.5 0.5 0.8 1.1c-2-5.5 0.7-11.5 6.1-13.7 5.4-2.1 11.5 0.5 13.8 5.8 2.3 5.4-0.2 11.5-5.5 13.9-5.3 2.4-11.5 0.1-14-5.2q0.2 0.8 0.2 1.5c0 1.3-0.5 2.6-1.4 3.5l-1.6 1.5q0.9 1.1 2.1 2.1l1.4-1.4c0.5-0.5 1.3-0.6 1.9-0.2 1.3 0.8 2.8 1.4 4.3 1.8 0.8 0.1 1.3 0.8 1.3 1.5v2q1.7 0.2 3.5 0v-2c0-0.7 0.5-1.4 1.2-1.5 1.6-0.4 3-1 4.4-1.8 0.6-0.4 1.4-0.3 1.9 0.2l1.4 1.4q1.4-1.1 2.5-2.5l-1.4-1.4c-0.5-0.5-0.6-1.3-0.2-2 0.8-1.3 1.4-2.7 1.8-4.3 0.2-0.7 0.8-1.2 1.5-1.2zm-20.4 3.8c1.5 1.5 3.5 2.3 5.6 2.3 3.1 0 6-2 7.2-4.9 1.2-2.9 0.5-6.3-1.7-8.5-2.3-2.3-5.7-2.9-8.6-1.7-2.9 1.2-4.8 4-4.8 7.2 0 2.1 0.8 4.1 2.3 5.6zm-31.8-11.2c0-2.9 1.8-5.6 4.5-6.7 2.7-1.1 5.8-0.5 7.9 1.6 2.1 2 2.7 5.2 1.6 7.9-1.1 2.7-3.8 4.5-6.7 4.5-4.1 0-7.3-3.3-7.3-7.3zm3.1 0.1c0 1.7 1 3.2 2.6 3.8 1.5 0.7 3.3 0.3 4.5-0.9 1.2-1.2 1.6-3 0.9-4.5-0.6-1.6-2.1-2.6-3.8-2.6-2.3 0-4.2 1.9-4.2 4.2z"/>
	<text id="Created by Critical_icon" style="transform: matrix(1,0,0,1,5,127.5)" >
		<tspan x="0" y="0" class="t1">Created by Critical_icon
</tspan>
	</text>
	<text id="from Noun Project" style="transform: matrix(1,0,0,1,5,132.5)" >
		<tspan x="0" y="0" class="t1">from Noun Project
</tspan>
	</text>
</svg>