<?xml version="1.0" standalone="no"?>
<!DOCTYPE svg PUBLIC "-//W3C//DTD SVG 20010904//EN"
 "http://www.w3.org/TR/2001/REC-SVG-20010904/DTD/svg10.dtd">
<svg version="1.0" xmlns="http://www.w3.org/2000/svg"
 width="700.000000pt" height="607.000000pt" viewBox="0 0 700.000000 607.000000"
 preserveAspectRatio="xMidYMid meet">

<g transform="translate(0.000000,607.000000) scale(0.100000,-0.100000)"
fill="#000000" stroke="none">
<path d="M2335 4850 c-4 -6 -9 -82 -11 -168 -3 -86 -7 -167 -10 -178 -2 -15
-50 -51 -150 -115 -80 -51 -149 -100 -152 -107 -11 -29 16 -45 172 -102 87
-32 162 -62 166 -67 5 -4 25 -71 45 -148 54 -206 53 -205 80 -205 18 0 45 28
119 123 52 68 104 131 115 141 19 17 31 17 191 7 175 -12 200 -9 200 24 0 7
-43 77 -95 154 -52 78 -95 149 -95 157 0 13 27 87 97 261 27 70 24 103 -10
103 -12 0 -94 -21 -183 -46 l-160 -47 -135 111 c-127 105 -168 128 -184 102z"/>
<path d="M4121 4425 c-34 -47 -68 -85 -74 -86 -7 0 -63 0 -124 1 -96 1 -113
-1 -113 -14 0 -8 27 -54 60 -101 33 -47 60 -92 60 -100 0 -7 -16 -55 -35 -105
-19 -50 -35 -98 -35 -106 0 -20 34 -17 125 11 44 14 89 25 100 25 11 0 43 -18
70 -41 28 -22 63 -52 79 -65 50 -41 62 -33 69 44 4 37 7 90 7 118 l0 50 95 62
c52 35 95 69 95 76 0 8 -19 21 -42 30 -24 9 -72 26 -108 39 -72 26 -66 16
-111 175 -15 53 -25 72 -38 72 -10 0 -44 -36 -80 -85z"/>
<path d="M3192 3816 c45 -58 113 -152 151 -208 46 -69 67 -93 62 -73 -13 57
-72 170 -120 230 -47 58 -140 145 -164 153 -6 2 25 -44 71 -102z"/>
<path d="M2850 3876 c0 -4 22 -33 48 -64 169 -197 338 -458 463 -714 64 -132
68 -121 12 32 -68 185 -178 374 -309 530 -69 82 -214 229 -214 216z"/>
<path d="M4765 3836 c-627 -163 -1102 -673 -1220 -1311 -17 -91 -24 -114 -29
-95 -22 73 -82 223 -125 313 -213 441 -518 688 -931 753 -140 22 -415 15 -545
-14 -161 -37 -357 -112 -402 -154 -31 -29 -31 -81 0 -112 15 -14 45 -27 87
-35 519 -99 1137 -342 1385 -544 96 -78 245 -247 245 -278 0 -5 -27 5 -61 21
-255 129 -657 195 -1354 222 -204 8 -382 8 -557 2 -287 -10 -294 -12 -331 -86
-17 -35 -17 -44 -3 -170 10 -80 16 -218 16 -345 l0 -211 -104 -4 c-100 -3
-106 -4 -136 -33 -75 -72 -55 -191 40 -229 36 -14 154 -16 1175 -16 l1134 0
63 -56 c76 -67 158 -117 241 -146 84 -31 265 -32 346 -4 79 27 159 77 235 146
l66 60 1103 0 c692 0 1115 4 1137 10 47 13 97 66 105 110 4 26 0 47 -17 80
-33 65 -69 80 -189 80 l-97 0 -7 128 c-9 147 -1 304 21 429 18 106 13 142 -27
181 -44 43 -252 103 -479 138 -160 25 -501 25 -660 1 -306 -48 -659 -158 -979
-307 -62 -29 -114 -50 -117 -47 -8 8 75 156 150 267 170 251 402 452 678 589
193 95 399 158 612 186 126 16 149 27 161 72 10 42 -12 75 -83 123 -103 68
-189 137 -284 227 -81 78 -89 83 -130 83 -24 -1 -83 -11 -133 -24z m171 -58
c41 -46 238 -208 319 -262 47 -31 85 -60 85 -65 0 -18 -28 -29 -95 -35 -267
-26 -609 -149 -841 -302 -273 -180 -500 -436 -648 -731 -50 -100 -58 -148 -28
-158 12 -3 60 14 123 43 172 81 218 101 349 152 259 100 506 163 760 195 160
21 444 16 605 -10 182 -29 384 -86 423 -120 26 -23 26 -23 14 -91 -24 -134
-36 -363 -26 -487 l9 -117 -1048 0 c-911 0 -1052 -2 -1077 -15 -16 -8 -50 -40
-75 -71 -90 -111 -162 -149 -268 -142 -88 5 -162 45 -246 131 -36 38 -78 75
-93 83 -23 12 -188 14 -1101 14 l-1075 0 -5 268 c-3 147 -10 299 -17 337 -23
146 -29 144 351 152 642 12 1292 -45 1616 -143 89 -26 211 -80 285 -126 51
-32 75 -33 92 -6 22 36 -80 194 -209 323 -154 153 -358 272 -691 403 -255 100
-614 207 -799 237 -65 11 -75 15 -75 36 0 23 60 55 198 103 190 66 371 89 585
75 306 -20 546 -131 746 -345 159 -170 276 -388 394 -734 29 -86 35 -95 59
-98 36 -4 44 14 52 118 18 221 110 495 233 687 220 348 569 601 968 703 96 25
128 25 151 -2z"/>
<path d="M4901 2410 c-271 -27 -539 -103 -780 -224 -101 -51 -221 -123 -221
-132 0 -2 48 20 108 50 364 184 760 276 1177 276 123 0 190 -5 375 -25 l45 -5
-48 14 c-140 41 -469 64 -656 46z"/>
<path d="M1546 2364 c-159 -21 -194 -34 -66 -26 180 12 486 6 630 -12 306 -39
589 -117 875 -242 129 -57 94 -30 -60 46 -261 129 -533 208 -820 240 -125 14
-429 10 -559 -6z"/>
<path d="M4840 2125 c-8 -2 -55 -9 -105 -15 -90 -12 -313 -71 -343 -91 -20
-12 -20 -12 133 19 214 44 439 59 640 43 167 -14 353 -43 450 -71 124 -36 92
-15 -46 30 -111 36 -241 65 -359 80 -75 9 -331 12 -370 5z"/>
<path d="M1745 2100 c-83 -7 -285 -38 -285 -43 0 -1 125 0 277 1 329 4 486 -6
833 -53 32 -4 31 -3 -10 10 -201 68 -571 106 -815 85z"/>
<path d="M3894 3746 c-101 -125 -197 -291 -250 -433 -35 -92 -82 -284 -89
-363 -6 -64 -5 -64 30 54 80 263 180 496 302 696 30 50 53 93 51 94 -1 2 -22
-19 -44 -48z"/>
<path d="M4043 3687 c-72 -53 -139 -157 -162 -251 -15 -63 -8 -69 20 -14 12
23 54 93 93 153 87 133 88 135 84 135 -2 0 -18 -10 -35 -23z"/>
</g>
</svg>
