<svg xmlns="http://www.w3.org/2000/svg" version="1.1" viewBox="-5.0 -10.0 110.0 135.0">
 <path d="m33.012 74.824h-8.8555c-0.86719 0-1.5742 0.70312-1.5742 1.5703v18.75c0 0.41797 0.16406 0.82031 0.45703 1.1172 0.29688 0.29688 0.69922 0.46094 1.1172 0.45703h8.8555c0.86719 0 1.5703-0.70312 1.5703-1.5742v-18.75c-0.003906-0.86328-0.70703-1.5664-1.5703-1.5703zm-1.5742 18.75h-5.707v-15.625h5.707zm16.312-28.5h-8.8555c-0.41797 0-0.82422 0.16797-1.1172 0.46484-0.29688 0.30078-0.46094 0.70703-0.45312 1.1289v28.445c-0.003907 0.41797 0.16016 0.82031 0.45703 1.1172 0.29297 0.29688 0.69531 0.46094 1.1133 0.45703h8.8555c0.86719 0 1.5742-0.70312 1.5742-1.5742v-28.445c0-0.42188-0.16406-0.82422-0.45703-1.125-0.29688-0.29688-0.69531-0.46875-1.1172-0.46875zm-1.5742 28.469h-5.707v-25.324h5.707zm16.324-36.25h-8.8555c-0.85547 0.003906-1.5508 0.69531-1.5625 1.5508v36.27c0 0.41797 0.16406 0.82031 0.45703 1.1172 0.29688 0.29688 0.69922 0.46094 1.1172 0.45703h8.8438c0.86719 0 1.5742-0.70312 1.5742-1.5742v-36.27c-0.019531-0.85938-0.71484-1.5469-1.5742-1.5508zm-1.582 36.25h-5.7109v-33.125h5.707zm16.312-42.012h-8.8555c-0.42188-0.003906-0.82812 0.16406-1.1211 0.46484-0.29688 0.30078-0.46094 0.70703-0.45312 1.1289v41.988c0 0.41797 0.16406 0.82031 0.45703 1.1172 0.29688 0.29688 0.69922 0.46094 1.1172 0.45703h8.8555c0.86719 0 1.5703-0.70312 1.5703-1.5742v-41.988c0.007813-0.42188-0.15625-0.82812-0.45312-1.125-0.29297-0.30078-0.69922-0.46875-1.1172-0.46875zm-1.5742 42.012h-5.707v-38.867h5.707zm16.312-49.918h-8.8555c-0.41797-0.003906-0.82031 0.16016-1.1133 0.45703-0.29688 0.29688-0.46094 0.69922-0.45703 1.1172v49.914c-0.003907 0.41797 0.16016 0.82031 0.45703 1.1172 0.29297 0.29688 0.69531 0.46094 1.1133 0.45703h8.8555c0.86719 0 1.5742-0.70312 1.5742-1.5742v-49.914c0-0.41797-0.16797-0.82031-0.46094-1.1133-0.29688-0.29688-0.69531-0.46094-1.1133-0.46094zm-1.5742 49.918h-5.707v-46.773h5.707zm-22.52-61.25-0.96875-0.96875c0.51172-0.95703 0.92578-1.9609 1.2383-3h1.375c1.2148 0.011719 2.25-0.88281 2.418-2.0859 0.26562-1.8672 0.26562-3.7656 0-5.6328-0.17188-1.2031-1.2031-2.0898-2.418-2.0859h-1.375c-0.3125-1.0352-0.73047-2.0352-1.2383-2.9883l0.96875-0.96875c0.875-0.85547 0.97266-2.2266 0.23047-3.1992-1.1367-1.5078-2.4805-2.8477-3.9922-3.9766-0.96484-0.74219-2.332-0.64844-3.1875 0.21875l-0.98047 0.96875h0.003907c-0.95312-0.52344-1.957-0.95312-2.9922-1.2812v-1.375c0.007813-1.2148-0.88281-2.2461-2.082-2.418-1.8711-0.26172-3.7734-0.26172-5.6445 0-1.2031 0.17188-2.0898 1.2031-2.0859 2.418v1.375c-1.0312 0.31641-2.0312 0.73438-2.9883 1.2383l-0.98047-0.96875c-0.85547-0.86328-2.2188-0.95703-3.1875-0.21875-1.5078 1.1367-2.8477 2.4727-3.9883 3.9805-0.73047 0.97266-0.63281 2.3359 0.23047 3.1953l0.96875 0.96875c-0.51172 0.95703-0.92578 1.957-1.2422 2.9922h-1.3945c-1.2148-0.007813-2.2461 0.88281-2.418 2.082-0.26172 1.8711-0.26172 3.7656 0 5.6367 0.066407 0.375 0.21484 0.73047 0.4375 1.0391l-4.168 4.168-4.0312-3.6367h0.003907c-1.4062-1.3867-3.5078-1.8008-5.3359-1.0391-1.8594 0.72266-3.082 2.5234-3.0703 4.5195v19.375l-8.8555 15.375c-1.3594 2.3477-0.5625 5.3516 1.7852 6.7148 2.3477 1.3594 5.3555 0.55859 6.7148-1.7891l7.6445-13.238 1.043 0.26953v11.375c0 2.7148 2.2031 4.918 4.918 4.918 2.7148 0 4.9141-2.2031 4.9141-4.918v-15.164c-0.003906-2.2266-1.4961-4.1719-3.6445-4.75l-4.6367-1.2383v-5.9414c1.9961 1.2852 4.6172 0.96875 6.25-0.75l4.9062-4.8125c0.89453 1.0156 1.8906 1.9375 2.9688 2.75 0.96875 0.74219 2.3359 0.64453 3.1875-0.22656l0.98047-0.96875c0.95312 0.50781 1.9531 0.92188 2.9883 1.2383v1.375c-0.011719 1.2148 0.88281 2.25 2.0859 2.418 1.8711 0.26172 3.7734 0.26172 5.6445 0 1.2031-0.16797 2.0938-1.2031 2.082-2.418v-1.3438c1.0352-0.3125 2.0391-0.72656 2.9922-1.2383l0.98047 0.96875h-0.003907c0.85156 0.87109 2.2227 0.96875 3.1875 0.22656 1.5117-1.1328 2.8555-2.4766 3.9922-3.9883 0.73438-0.96484 0.63672-2.3281-0.23047-3.1758zm-38.012 7.0078-0.0625 0.0625c-0.65625 0.70312-1.75 0.75391-2.4688 0.11719l-2.082-1.8438c-0.46094-0.42188-1.1289-0.53125-1.6992-0.28125-0.57031 0.25391-0.9375 0.82031-0.9375 1.4453v10.617c0.003907 0.71094 0.48047 1.332 1.168 1.5195l5.8125 1.5508c0.77734 0.19141 1.3359 0.87891 1.3555 1.6797v15.164c0.035156 0.49219-0.13281 0.97656-0.46875 1.3398-0.33594 0.36328-0.80469 0.56641-1.2969 0.56641-0.49609 0-0.96484-0.20312-1.3008-0.56641-0.33594-0.36328-0.50391-0.84766-0.46484-1.3398v-12.582c0.003906-0.71875-0.47266-1.3516-1.168-1.543l-3.332-0.875c-0.13672-0.015625-0.27344-0.015625-0.40625 0-0.56641 0.003907-1.0859 0.30469-1.3672 0.79297l-8.2383 14.27c-0.22656 0.39844-0.60156 0.69531-1.043 0.82422-0.44922 0.11719-0.92578 0.050781-1.332-0.17578-0.39844-0.23047-0.69141-0.60156-0.82422-1.043-0.11328-0.44922-0.050781-0.92969 0.17969-1.332l9.0312-15.793c0.13672-0.23828 0.20703-0.50781 0.20703-0.78125v-19.844c-0.015625-0.70312 0.39453-1.3438 1.043-1.625 0.66016-0.28516 1.4297-0.13672 1.9375 0.375l0.0625 0.0625 5.1562 4.6445c0.60547 0.57031 1.5508 0.57031 2.1562 0l6.6367-6.5195h-0.003907c0.32812-0.32812 0.77734-0.51562 1.2422-0.51172 0.46484 0.007813 0.91016 0.19922 1.2383 0.53125 0.32812 0.32812 0.51562 0.77734 0.51172 1.2422-0.007813 0.46484-0.19922 0.91016-0.53125 1.2383zm35.531-12.906c-0.33984 1.5352-0.94531 3-1.7891 4.3242-0.39844 0.625-0.30469 1.4375 0.21875 1.957l1.3828 1.3867c-0.74219 0.91797-1.582 1.7539-2.5 2.5l-1.3867-1.3867h0.003907c-0.52344-0.50781-1.3281-0.60156-1.9492-0.21875-1.3242 0.85156-2.7891 1.4609-4.3242 1.8047-0.71875 0.15625-1.2305 0.79297-1.2266 1.5312v1.957c-1.1797 0.125-2.3672 0.125-3.543 0v-1.957c0.003906-0.73828-0.51172-1.375-1.2305-1.5312-1.5352-0.34375-2.9961-0.95312-4.3203-1.8047-0.625-0.38672-1.4336-0.29688-1.9609 0.21875l-1.3945 1.3867c-0.75391-0.63281-1.4492-1.332-2.082-2.082l1.5742-1.543h-0.003907c0.93359-0.91016 1.4648-2.1562 1.4688-3.457-0.007812-0.49609-0.082031-0.98828-0.22656-1.4609 2.4883 5.25 8.7188 7.5508 14.023 5.1758 5.3008-2.375 7.7383-8.5547 5.4805-13.906-2.2578-5.3555-8.3828-7.9258-13.785-5.7852-5.4023 2.1406-8.1055 8.2031-6.0859 13.652-0.22656-0.41016-0.50781-0.78516-0.84375-1.1133-0.91016-0.93359-2.1562-1.4609-3.457-1.4688-0.76953 0.007812-1.5273 0.19531-2.207 0.55078-0.050781-0.5625-0.09375-1.125-0.09375-1.6875 0-0.58984 0.03125-1.1836 0.09375-1.7695h1.957c0.73828-0.003907 1.375-0.51172 1.543-1.2305 0.34375-1.5312 0.94922-2.9961 1.7891-4.3242 0.39453-0.62109 0.30078-1.4336-0.21875-1.957l-1.3867-1.375h0.003907c0.74219-0.92188 1.582-1.7617 2.5-2.5117l1.3867 1.3867h-0.003907c0.52344 0.52344 1.3359 0.61328 1.9609 0.21875 1.3242-0.83984 2.7891-1.4453 4.3203-1.793 0.71875-0.16016 1.2305-0.79688 1.2305-1.5312v-2c1.1758-0.125 2.3633-0.125 3.543 0v1.9609c0 0.73438 0.51172 1.3711 1.2266 1.5312 1.5234 0.34766 2.9766 0.95312 4.293 1.7891 0.625 0.39844 1.4375 0.30469 1.957-0.21875l1.375-1.3828c0.91797 0.74609 1.7578 1.5898 2.5 2.5078l-1.3867 1.375h0.003907c-0.51953 0.52344-0.61328 1.3359-0.21875 1.9609 0.83984 1.3242 1.4453 2.7891 1.7891 4.3203 0.16797 0.71875 0.80469 1.2305 1.543 1.2305h1.957c0.0625 0.58984 0.09375 1.1797 0.09375 1.7695 0 0.59375-0.03125 1.1836-0.09375 1.7734h-1.957c-0.73828 0-1.375 0.50781-1.543 1.2266zm-21.207-3c0-3.1719 1.9102-6.0312 4.8398-7.25 2.9297-1.2188 6.3047-0.55469 8.5547 1.6836s2.9297 5.6094 1.7266 8.543c-1.2031 2.9375-4.0508 4.8633-7.2266 4.8789-2.0898 0.007812-4.0938-0.81641-5.5781-2.2891-1.4805-1.4727-2.3125-3.4766-2.3164-5.5664zm-22.207 1.6875c2.9492 0 5.6055-1.7734 6.7344-4.5 1.1289-2.7266 0.50391-5.8594-1.5781-7.9453-2.0859-2.0859-5.2227-2.7109-7.9492-1.582-2.7227 1.1289-4.5 3.7891-4.5 6.7383 0 4.0273 3.2656 7.2891 7.293 7.2891zm0-11.406c1.6836 0 3.2031 1.0156 3.8477 2.5742 0.64453 1.5547 0.28906 3.3477-0.90234 4.5391-1.1914 1.1914-2.9844 1.5508-4.543 0.90234-1.5547-0.64453-2.5703-2.1641-2.5703-3.8477 0-2.3008 1.8672-4.168 4.168-4.168z"/>
<text x="0.0" y="117.5" font-size="5.0" font-weight="bold" font-family="Arbeit Regular, Helvetica, Arial-Unicode, Arial, Sans-serif" fill="#000000">Created by Critical_icon</text><text x="0.0" y="122.5" font-size="5.0" font-weight="bold" font-family="Arbeit Regular, Helvetica, Arial-Unicode, Arial, Sans-serif" fill="#000000">from Noun Project</text></svg>