<?xml version="1.0" encoding="utf-8"?>
<!-- Generator: Adobe Illustrator 27.5.0, SVG Export Plug-In . SVG Version: 6.00 Build 0)  -->
<svg version="1.1" xmlns="http://www.w3.org/2000/svg" xmlns:xlink="http://www.w3.org/1999/xlink" x="0px" y="0px"
	 viewBox="0 0 500 500" style="enable-background:new 0 0 500 500;" xml:space="preserve">
<g id="BACKGROUND">
	<rect style="fill:#FFFFFF;" width="300" height="300"/>
	<g>
		<g style="opacity:0.3;">
			<path style="fill:none;stroke:#2C54AC;stroke-width:1.0454;stroke-miterlimit:10;stroke-dasharray:4.3168,4.3168;" d="
				M137.773,442.176c21.311-0.235,41.815-7.337,62.749-11.2c25.055-4.623,51.022-4.581,76.061,0.124
				c26.549,4.988,52.092,15.153,79.054,17.209c45.04,3.435,81.085-17.993,106.503-54.115c25.418-36.122,29.08-85.538,9.247-124.796
				c-6.751-13.363-15.953-25.516-21.992-39.193c-19.81-44.864,13.255-117.208-17.042-156.211
				c-16.515-21.26-44.291-32.472-71.737-34.072c-27.446-1.6-54.713,11.434-80.352,21.039c-24.726,9.264-57.83,30.547-83.784,25.292
				c-18.069-3.659-33.325-15.271-50.846-20.897c-37.288-11.973-80.508,6.619-102.337,38.212
				C21.47,135.161,18.916,176.64,29.456,213.243c6.336,22.001,17.132,43.332,17.198,66.171c0.043,14.991-4.578,29.578-7.071,44.374
				C29.918,381.146,75.096,442.867,137.773,442.176z"/>
		</g>
		<path style="opacity:0.3;fill:#9DDCF9;" d="M113.426,425.669c21.166,2.41,42.443-2.091,63.716-3.326
			c25.462-1.478,51.208,1.785,75.417,9.555c25.668,8.239,49.653,21.488,76.119,26.871c44.212,8.992,82.718-16.675,112.716-49.346
			c29.998-32.671,40.182-81.225,25.719-122.618c-4.923-14.09-12.438-27.283-16.614-41.597
			c-13.697-46.95,25.832-95.665,5.409-140.511c-11.113-24.402-34.105-40.357-61.112-45.347c-27.007-4.991-63.982-1.396-90.683,4.951
			c-25.751,6.121-60.226,24.095-85.269,15.665c-17.435-5.869-31.025-19.278-47.655-27.03
			c-35.392-16.499-80.722-3.419-106.559,25.205C38.793,106.766,30.76,147.585,36.36,185.194
			c3.366,22.605,11.244,45.099,8.282,67.757c-1.945,14.872-8.462,28.766-12.896,43.13
			C14.554,351.767,51.175,418.582,113.426,425.669z"/>
	</g>
</g>
<g id="OBJECTS">
	<g style="opacity:0.4;">
		<g>
			<path style="fill:#55A3F3;" d="M453.512,209.247l-0.835-4.14c-0.525-2.604-0.638-4.843-0.338-6.72
				c0.299-1.875,0.831-3.541,1.595-4.996c0.763-1.454,1.566-2.781,2.408-3.981c1.144-1.584,2.134-3.126,2.97-4.622
				c0.837-1.496,1.045-3.286,0.625-5.369c-0.231-1.145-0.712-2.051-1.442-2.717c-0.731-0.666-1.544-1.138-2.44-1.418
				c-0.897-0.279-1.735-0.341-2.517-0.184c-1.511,0.305-2.702,0.91-3.576,1.818c-0.874,0.908-1.527,1.974-1.957,3.199
				c-0.431,1.225-0.759,2.484-0.987,3.776l-9.833-2.408c0.123-1,0.429-2.308,0.916-3.924c0.487-1.615,1.299-3.296,2.438-5.044
				c1.138-1.746,2.688-3.332,4.65-4.758c1.961-1.424,4.453-2.442,7.473-3.051c2.968-0.598,5.739-0.628,8.314-0.091
				c2.574,0.538,4.777,1.72,6.608,3.546c1.831,1.826,3.093,4.457,3.786,7.894c0.577,2.865,0.654,5.261,0.229,7.189
				c-0.424,1.928-1.087,3.62-1.985,5.074c-0.899,1.455-1.802,2.897-2.705,4.325c-0.707,1.065-1.356,2.212-1.948,3.441
				c-0.593,1.231-0.981,2.596-1.166,4.096c-0.185,1.5-0.078,3.241,0.32,5.219l0.331,1.64L453.512,209.247z M462.302,224.628
				c-1.875,0.378-3.514,0.18-4.916-0.594c-1.404-0.774-2.272-1.994-2.608-3.661c-0.325-1.614,0.013-3.092,1.017-4.432
				c1.003-1.34,2.415-2.194,4.239-2.562c1.822-0.367,3.43-0.122,4.823,0.735c1.392,0.858,2.251,2.094,2.576,3.708
				c0.336,1.667,0.033,3.123-0.908,4.37C465.584,223.438,464.177,224.25,462.302,224.628z"/>
		</g>
		<g>
			<path style="fill:#55A3F3;" d="M46.654,269.414l-1.603-3.498c-1.008-2.2-1.576-4.162-1.701-5.889
				c-0.126-1.725-0.001-3.313,0.373-4.763c0.374-1.449,0.809-2.793,1.306-4.033c0.684-1.644,1.241-3.217,1.671-4.719
				c0.43-1.501,0.242-3.132-0.565-4.892c-0.443-0.967-1.059-1.671-1.845-2.109c-0.787-0.438-1.607-0.688-2.46-0.749
				c-0.854-0.061-1.61,0.059-2.27,0.361c-1.277,0.585-2.207,1.371-2.792,2.358c-0.586,0.987-0.942,2.069-1.069,3.245
				c-0.127,1.177-0.156,2.361-0.088,3.554l-9.223-0.086c-0.099-0.913-0.1-2.136-0.005-3.671c0.096-1.534,0.465-3.194,1.111-4.982
				c0.645-1.785,1.689-3.515,3.132-5.189c1.442-1.672,3.44-3.094,5.992-4.264c2.508-1.149,4.959-1.753,7.355-1.813
				c2.395-0.059,4.595,0.53,6.6,1.767c2.005,1.237,3.672,3.308,5.003,6.212c1.109,2.42,1.677,4.53,1.702,6.328
				c0.026,1.799-0.209,3.438-0.703,4.914c-0.494,1.478-0.994,2.945-1.497,4.4c-0.406,1.092-0.742,2.244-1.011,3.458
				c-0.269,1.215-0.329,2.507-0.18,3.876c0.148,1.369,0.606,2.891,1.372,4.562l0.635,1.386L46.654,269.414z M57.656,281.222
				c-1.584,0.726-3.079,0.892-4.484,0.498c-1.406-0.394-2.43-1.295-3.076-2.703c-0.625-1.363-0.633-2.745-0.022-4.143
				c0.61-1.397,1.685-2.449,3.226-3.156c1.54-0.705,3.017-0.823,4.43-0.353c1.413,0.471,2.433,1.388,3.058,2.752
				c0.646,1.409,0.68,2.763,0.106,4.065C60.319,279.483,59.24,280.496,57.656,281.222z"/>
		</g>
		<g>
			<path style="fill:#55A3F3;" d="M258.452,51.434l0.482-3.199c0.303-2.012,0.807-3.654,1.514-4.927
				c0.706-1.272,1.524-2.332,2.455-3.18c0.93-0.848,1.855-1.593,2.776-2.236c1.238-0.842,2.354-1.692,3.348-2.551
				c0.994-0.858,1.612-2.092,1.855-3.703c0.133-0.885,0.024-1.663-0.328-2.334c-0.352-0.67-0.814-1.223-1.386-1.66
				c-0.573-0.436-1.16-0.7-1.764-0.791c-1.168-0.176-2.184-0.051-3.051,0.374c-0.867,0.425-1.616,1.022-2.246,1.792
				c-0.631,0.769-1.196,1.59-1.698,2.461l-6.451-4.306c0.351-0.688,0.913-1.55,1.686-2.586c0.774-1.035,1.798-2.033,3.075-2.994
				c1.276-0.959,2.807-1.696,4.593-2.209c1.785-0.512,3.845-0.594,6.179-0.242c2.294,0.346,4.297,1.049,6.01,2.11
				c1.712,1.061,2.99,2.488,3.831,4.282c0.841,1.794,1.062,4.018,0.661,6.675c-0.333,2.214-0.905,3.959-1.715,5.236
				c-0.81,1.278-1.729,2.323-2.757,3.134c-1.028,0.813-2.055,1.615-3.079,2.407c-0.788,0.582-1.555,1.238-2.303,1.968
				c-0.749,0.731-1.385,1.612-1.911,2.644c-0.526,1.032-0.904,2.313-1.135,3.842l-0.191,1.267L258.452,51.434z M260.758,64.808
				c-1.449-0.218-2.577-0.79-3.384-1.714c-0.808-0.924-1.114-2.03-0.92-3.318c0.188-1.247,0.818-2.223,1.892-2.925
				c1.072-0.703,2.313-0.948,3.722-0.736c1.408,0.212,2.502,0.809,3.28,1.791c0.778,0.982,1.073,2.097,0.885,3.344
				c-0.194,1.288-0.794,2.257-1.797,2.909C263.432,64.81,262.206,65.027,260.758,64.808z"/>
		</g>
		<g>
			<path style="fill:#55A3F3;" d="M230.218,88.073l-0.486-2.58c-0.305-1.623-0.358-3.015-0.157-4.179
				c0.201-1.163,0.544-2.194,1.031-3.093c0.486-0.898,0.995-1.716,1.529-2.455c0.724-0.976,1.351-1.926,1.883-2.85
				c0.532-0.923,0.675-2.034,0.431-3.332c-0.134-0.714-0.426-1.281-0.875-1.7c-0.449-0.42-0.951-0.72-1.505-0.901
				c-0.555-0.181-1.076-0.226-1.563-0.134c-0.942,0.177-1.687,0.544-2.237,1.102c-0.55,0.557-0.964,1.215-1.241,1.973
				c-0.278,0.758-0.492,1.538-0.643,2.339l-6.093-1.575c0.085-0.621,0.285-1.431,0.601-2.432c0.316-1,0.834-2.038,1.556-3.116
				c0.721-1.076,1.697-2.05,2.928-2.92c1.23-0.87,2.787-1.483,4.669-1.837c1.85-0.348,3.572-0.345,5.169,0.01
				c1.595,0.355,2.956,1.107,4.079,2.256c1.124,1.149,1.887,2.795,2.291,4.937c0.336,1.785,0.365,3.276,0.085,4.47
				c-0.279,1.195-0.704,2.242-1.274,3.138c-0.571,0.898-1.143,1.787-1.716,2.667c-0.448,0.656-0.861,1.364-1.238,2.124
				c-0.378,0.76-0.63,1.605-0.757,2.537c-0.127,0.931-0.074,2.014,0.158,3.247l0.192,1.022L230.218,88.073z M235.56,97.703
				c-1.168,0.22-2.186,0.084-3.051-0.408c-0.866-0.492-1.396-1.257-1.592-2.296c-0.189-1.006,0.033-1.922,0.667-2.747
				c0.634-0.825,1.519-1.345,2.655-1.559c1.136-0.214,2.133-0.049,2.992,0.495c0.859,0.544,1.383,1.32,1.572,2.325
				c0.196,1.039-0.004,1.941-0.599,2.709C237.609,96.99,236.728,97.483,235.56,97.703z"/>
		</g>
		<g>
			<path style="fill:#55A3F3;" d="M285.464,87.87l0.47-1.881c0.296-1.183,0.69-2.134,1.184-2.853
				c0.493-0.719,1.042-1.304,1.645-1.757c0.603-0.452,1.197-0.844,1.783-1.176c0.786-0.431,1.501-0.875,2.142-1.331
				c0.642-0.455,1.081-1.156,1.317-2.103c0.13-0.52,0.109-0.991-0.062-1.411c-0.172-0.42-0.416-0.776-0.732-1.069
				c-0.317-0.293-0.652-0.483-1.007-0.572c-0.687-0.171-1.3-0.155-1.841,0.049c-0.541,0.204-1.022,0.518-1.442,0.941
				c-0.42,0.423-0.804,0.88-1.153,1.371l-3.603-2.936c0.248-0.391,0.633-0.872,1.153-1.446c0.52-0.574,1.188-1.111,2.005-1.611
				c0.816-0.5,1.771-0.852,2.866-1.056c1.094-0.204,2.327-0.135,3.7,0.208c1.349,0.337,2.503,0.871,3.465,1.601
				c0.961,0.73,1.642,1.654,2.041,2.772c0.4,1.118,0.404,2.457,0.014,4.019c-0.325,1.301-0.766,2.31-1.322,3.026
				c-0.556,0.716-1.164,1.287-1.823,1.713c-0.66,0.426-1.318,0.846-1.974,1.26c-0.503,0.302-0.998,0.65-1.486,1.043
				c-0.488,0.393-0.918,0.883-1.291,1.469c-0.373,0.586-0.671,1.328-0.896,2.227l-0.186,0.745L285.464,87.87z M286.078,95.979
				c-0.852-0.213-1.493-0.618-1.921-1.215c-0.429-0.598-0.549-1.274-0.36-2.032c0.183-0.733,0.615-1.279,1.295-1.637
				c0.68-0.358,1.434-0.434,2.263-0.227c0.828,0.207,1.446,0.625,1.855,1.255c0.408,0.63,0.521,1.312,0.338,2.045
				c-0.189,0.757-0.602,1.301-1.237,1.633C287.674,96.132,286.93,96.192,286.078,95.979z"/>
		</g>
		<g>
			<path style="fill:#55A3F3;" d="M430.283,262.466l0.418-2.588c0.263-1.628,0.685-2.954,1.269-3.979
				c0.583-1.025,1.255-1.877,2.016-2.555c0.761-0.679,1.516-1.275,2.268-1.788c1.01-0.671,1.922-1.351,2.734-2.038
				c0.813-0.687,1.324-1.682,1.534-2.984c0.116-0.716,0.034-1.347-0.245-1.893c-0.28-0.546-0.649-0.998-1.109-1.356
				c-0.46-0.358-0.934-0.577-1.422-0.656c-0.945-0.153-1.769-0.06-2.475,0.277c-0.706,0.337-1.318,0.814-1.835,1.432
				c-0.518,0.618-0.983,1.278-1.397,1.979l-5.19-3.544c0.29-0.554,0.753-1.248,1.388-2.081c0.636-0.832,1.474-1.632,2.517-2.399
				c1.042-0.766,2.288-1.35,3.74-1.751c1.45-0.4,3.12-0.448,5.008-0.143c1.855,0.3,3.472,0.887,4.851,1.76
				c1.378,0.874,2.401,2.041,3.067,3.502c0.666,1.46,0.826,3.265,0.479,5.413c-0.289,1.791-0.767,3.2-1.434,4.228
				c-0.667,1.028-1.421,1.867-2.26,2.516c-0.84,0.65-1.679,1.291-2.515,1.924c-0.643,0.464-1.271,0.989-1.883,1.575
				c-0.613,0.586-1.136,1.294-1.571,2.126c-0.435,0.832-0.752,1.866-0.952,3.103l-0.166,1.025L430.283,262.466z M432.038,273.321
				c-1.172-0.189-2.081-0.662-2.727-1.417c-0.647-0.756-0.885-1.654-0.717-2.696c0.163-1.009,0.682-1.794,1.558-2.354
				c0.875-0.56,1.882-0.748,3.022-0.564c1.139,0.184,2.02,0.677,2.642,1.479c0.622,0.802,0.851,1.708,0.689,2.717
				c-0.168,1.042-0.662,1.822-1.48,2.341C434.205,273.346,433.21,273.511,432.038,273.321z"/>
		</g>
		<g>
			<path style="fill:#55A3F3;" d="M58.375,211.222l-0.068-2.588c-0.043-1.628,0.124-2.992,0.502-4.093
				c0.378-1.101,0.874-2.051,1.488-2.849c0.614-0.798,1.238-1.515,1.873-2.151c0.858-0.837,1.617-1.663,2.28-2.479
				c0.663-0.815,0.977-1.874,0.942-3.177c-0.019-0.716-0.214-1.314-0.585-1.792c-0.371-0.479-0.813-0.85-1.324-1.113
				c-0.512-0.263-1.012-0.389-1.5-0.376c-0.945,0.025-1.728,0.265-2.351,0.722c-0.623,0.456-1.13,1.032-1.518,1.726
				c-0.389,0.694-0.72,1.42-0.993,2.176l-5.685-2.488c0.18-0.591,0.502-1.349,0.966-2.273c0.464-0.924,1.131-1.854,2.003-2.789
				c0.871-0.935,1.973-1.73,3.308-2.384c1.334-0.654,2.946-1.006,4.834-1.056c1.855-0.049,3.532,0.224,5.03,0.82
				c1.498,0.596,2.704,1.541,3.618,2.836c0.914,1.295,1.399,3.017,1.456,5.165c0.047,1.791-0.159,3.246-0.618,4.365
				c-0.459,1.12-1.037,2.072-1.732,2.855c-0.696,0.784-1.393,1.56-2.088,2.327c-0.539,0.569-1.052,1.193-1.539,1.873
				c-0.487,0.681-0.865,1.464-1.135,2.351c-0.27,0.887-0.388,1.949-0.355,3.186l0.027,1.025L58.375,211.222z M62.066,221.434
				c-1.172,0.031-2.141-0.261-2.906-0.876c-0.766-0.615-1.162-1.443-1.19-2.485c-0.027-1.009,0.333-1.866,1.08-2.57
				c0.746-0.704,1.689-1.071,2.829-1.101c1.139-0.03,2.084,0.287,2.835,0.951c0.75,0.664,1.139,1.501,1.166,2.51
				c0.028,1.042-0.309,1.889-1.008,2.543C64.173,221.061,63.237,221.403,62.066,221.434z"/>
		</g>
	</g>
	<g>
		<g>
			
				<ellipse transform="matrix(0.271 -0.9626 0.9626 0.271 -20.3378 176.3191)" style="fill:#55A3F3;" cx="106.239" cy="101.587" rx="70.431" ry="70.432"/>
			
				<ellipse transform="matrix(0.7219 -0.692 0.692 0.7219 -40.5882 101.8451)" style="fill:none;stroke:#55A3F3;stroke-width:1.0506;stroke-miterlimit:10;" cx="106.413" cy="101.419" rx="76.891" ry="70.432"/>
			<polygon style="fill:#55A3F3;" points="100.184,168.673 129.129,193.687 115.883,159.146 			"/>
		</g>
		<g>
			<g>
				<path style="fill:#2C54AC;" d="M105.49,125.608l-1.732-6.507c-1.089-4.093-1.488-7.646-1.194-10.662
					c0.293-3.014,0.977-5.716,2.051-8.106c1.073-2.389,2.221-4.579,3.445-6.571c1.666-2.633,3.091-5.182,4.276-7.646
					c1.186-2.463,1.342-5.331,0.471-8.607c-0.479-1.799-1.333-3.195-2.56-4.184c-1.228-0.988-2.568-1.661-4.022-2.02
					c-1.455-0.357-2.795-0.374-4.023-0.047c-2.375,0.632-4.212,1.713-5.514,3.242c-1.302,1.53-2.237,3.291-2.802,5.282
					c-0.567,1.992-0.966,4.027-1.202,6.106l-3.344,0.89l-12.541-3.763c0.099-1.604,0.458-3.715,1.076-6.335
					c0.618-2.617,1.746-5.373,3.389-8.265c1.641-2.89,3.953-5.566,6.937-8.026c2.982-2.458,6.848-4.321,11.597-5.585
					c4.666-1.242,9.073-1.56,13.223-0.955c4.149,0.605,7.771,2.271,10.863,4.999c3.093,2.727,5.358,6.792,6.796,12.195
					c1.198,4.503,1.554,8.31,1.066,11.419c-0.487,3.11-1.376,5.868-2.664,8.27c-1.289,2.404-2.585,4.786-3.883,7.148
					c-1.022,1.764-1.943,3.652-2.765,5.667c-0.824,2.016-1.308,4.227-1.456,6.633c-0.149,2.406,0.191,5.166,1.019,8.276l0.686,2.578
					L105.49,125.608z M120.98,149.23c-2.947,0.784-5.575,0.629-7.882-0.466c-2.309-1.095-3.81-2.952-4.507-5.572
					c-0.675-2.537-0.281-4.922,1.186-7.153c1.465-2.231,3.631-3.728,6.497-4.49c2.864-0.762,5.448-0.529,7.747,0.7
					c2.299,1.229,3.787,3.113,4.462,5.65c0.698,2.621,0.356,4.967-1.018,7.043C126.088,147.017,123.927,148.446,120.98,149.23z"/>
			</g>
			<g>
				<path style="fill:#FFFFFF;" d="M102.145,126.498l-1.732-6.508c-1.089-4.093-1.488-7.646-1.194-10.662
					c0.293-3.014,0.977-5.716,2.051-8.106c1.073-2.389,2.221-4.579,3.445-6.571c1.666-2.633,3.091-5.182,4.276-7.647
					c1.186-2.463,1.342-5.331,0.471-8.606c-0.479-1.8-1.333-3.195-2.56-4.184c-1.228-0.988-2.568-1.661-4.022-2.02
					c-1.455-0.357-2.795-0.374-4.023-0.047c-2.375,0.632-4.212,1.712-5.514,3.242c-1.302,1.53-2.237,3.291-2.802,5.282
					c-0.567,1.992-0.966,4.027-1.202,6.105l-15.886-2.873c0.099-1.604,0.458-3.715,1.076-6.335c0.618-2.617,1.746-5.372,3.389-8.265
					c1.641-2.889,3.953-5.565,6.937-8.026c2.982-2.458,6.848-4.321,11.597-5.585c4.666-1.242,9.073-1.559,13.224-0.955
					c4.149,0.605,7.771,2.271,10.863,4.999c3.093,2.727,5.358,6.792,6.796,12.195c1.198,4.503,1.554,8.31,1.066,11.419
					c-0.487,3.111-1.376,5.869-2.664,8.27c-1.289,2.404-2.585,4.787-3.883,7.148c-1.022,1.763-1.943,3.652-2.765,5.667
					c-0.824,2.016-1.308,4.227-1.456,6.633c-0.149,2.406,0.191,5.166,1.019,8.276l0.686,2.578L102.145,126.498z M117.636,150.12
					c-2.947,0.784-5.575,0.629-7.882-0.466c-2.309-1.095-3.81-2.951-4.507-5.572c-0.675-2.537-0.281-4.922,1.186-7.153
					c1.465-2.23,3.631-3.728,6.497-4.49c2.864-0.762,5.447-0.529,7.747,0.7c2.299,1.229,3.787,3.114,4.462,5.65
					c0.698,2.621,0.356,4.967-1.018,7.043C122.743,147.907,120.583,149.336,117.636,150.12z"/>
			</g>
		</g>
	</g>
	<g>
		<g>
			
				<ellipse transform="matrix(0.963 -0.2694 0.2694 0.963 -9.9334 108.083)" style="fill:#2C54AC;" cx="388.768" cy="90.228" rx="73.228" ry="73.228"/>
			
				<ellipse style="fill:none;stroke:#2C54AC;stroke-width:0.9215;stroke-miterlimit:10;" cx="389.02" cy="90.228" rx="79.944" ry="73.228"/>
			<polygon style="fill:#2C54AC;" points="417.19,152.815 398.865,188.116 398.361,149.658 			"/>
		</g>
		<g>
			<g>
				<path style="fill:#55A3F3;" d="M382.791,111.986l0.333-6.726c0.21-4.23,0.912-7.736,2.111-10.519
					c1.197-2.781,2.672-5.147,4.423-7.096c1.75-1.949,3.51-3.685,5.283-5.209c2.389-2,4.523-3.994,6.403-5.98
					c1.88-1.984,2.903-4.669,3.071-8.054c0.092-1.86-0.296-3.449-1.164-4.765c-0.869-1.315-1.94-2.364-3.215-3.149
					c-1.277-0.783-2.548-1.208-3.818-1.271c-2.455-0.122-4.534,0.348-6.24,1.408c-1.706,1.061-3.133,2.453-4.278,4.177
					c-1.147,1.725-2.147,3.541-3.005,5.449l-3.457-0.171l-10.798-7.405c0.583-1.498,1.568-3.399,2.954-5.706
					c1.386-2.305,3.3-4.585,5.746-6.84c2.443-2.252,5.46-4.097,9.052-5.531c3.589-1.432,7.839-2.029,12.747-1.786
					c4.822,0.239,9.116,1.279,12.886,3.119c3.767,1.84,6.709,4.531,8.824,8.071c2.115,3.54,3.034,8.101,2.758,13.686
					c-0.23,4.654-1.052,8.388-2.463,11.201c-1.412,2.814-3.099,5.17-5.057,7.065c-1.961,1.897-3.92,3.771-5.876,5.625
					c-1.511,1.368-2.964,2.887-4.36,4.555c-1.399,1.67-2.534,3.627-3.408,5.874c-0.875,2.246-1.392,4.978-1.551,8.193l-0.132,2.665
					L382.791,111.986z M390.348,139.204c-3.046-0.151-5.502-1.099-7.365-2.845c-1.866-1.747-2.729-3.972-2.595-6.681
					c0.13-2.622,1.232-4.773,3.309-6.452c2.075-1.678,4.594-2.444,7.556-2.298c2.96,0.147,5.35,1.156,7.165,3.027
					c1.816,1.871,2.659,4.119,2.529,6.741c-0.134,2.709-1.174,4.84-3.116,6.398C395.888,138.652,393.394,139.355,390.348,139.204z"
					/>
			</g>
			<g>
				<path style="fill:#FFFFFF;" d="M379.334,111.815l0.333-6.726c0.209-4.23,0.912-7.736,2.111-10.519
					c1.197-2.781,2.672-5.147,4.423-7.096c1.75-1.949,3.51-3.685,5.283-5.209c2.389-2,4.523-3.994,6.403-5.98
					c1.88-1.984,2.903-4.669,3.07-8.054c0.092-1.86-0.296-3.45-1.164-4.765c-0.869-1.315-1.94-2.364-3.215-3.149
					c-1.277-0.783-2.548-1.208-3.818-1.27c-2.455-0.122-4.534,0.348-6.24,1.408c-1.706,1.061-3.133,2.453-4.278,4.177
					c-1.147,1.725-2.147,3.541-3.005,5.449l-14.255-7.576c0.583-1.498,1.568-3.399,2.954-5.706c1.386-2.305,3.3-4.585,5.746-6.84
					c2.443-2.252,5.46-4.097,9.052-5.531c3.589-1.432,7.839-2.029,12.747-1.786c4.823,0.239,9.116,1.279,12.886,3.119
					c3.767,1.84,6.709,4.531,8.824,8.071c2.115,3.539,3.034,8.101,2.758,13.685c-0.23,4.654-1.052,8.388-2.463,11.201
					c-1.412,2.814-3.099,5.17-5.057,7.065c-1.96,1.897-3.92,3.772-5.876,5.625c-1.511,1.368-2.963,2.886-4.36,4.555
					c-1.399,1.67-2.533,3.627-3.408,5.874c-0.875,2.247-1.392,4.978-1.551,8.193l-0.132,2.665L379.334,111.815z M386.892,139.033
					c-3.046-0.151-5.502-1.099-7.365-2.845c-1.866-1.747-2.729-3.972-2.595-6.681c0.13-2.622,1.232-4.773,3.309-6.452
					c2.075-1.678,4.594-2.444,7.556-2.298c2.96,0.147,5.35,1.156,7.165,3.026c1.815,1.871,2.658,4.119,2.529,6.741
					c-0.134,2.709-1.174,4.84-3.116,6.398C392.431,138.481,389.937,139.184,386.892,139.033z"/>
			</g>
		</g>
	</g>
	<g>
		<g>
			
				<ellipse transform="matrix(0.9895 -0.1445 0.1445 0.9895 -21.8708 37.9077)" style="fill:#0A2A6B;" cx="249.989" cy="169.494" rx="57.252" ry="57.252"/>
			
				<ellipse transform="matrix(0.9554 -0.2952 0.2952 0.9554 -38.9773 81.5103)" style="fill:none;stroke:#0A2A6B;stroke-width:1.1674;stroke-miterlimit:10;" cx="250.456" cy="169.839" rx="62.361" ry="57.252"/>
			<polygon style="fill:#0A2A6B;" points="251.671,224.033 267.922,244.228 265.932,219.626 			"/>
		</g>
		<g>
			<g>
				<path style="fill:#55A3F3;" d="M247.111,188.71l-0.681-5.422c-0.428-3.41-0.361-6.31,0.206-8.703
					c0.565-2.391,1.41-4.489,2.535-6.294c1.124-1.804,2.286-3.439,3.488-4.907c1.628-1.935,3.052-3.829,4.274-5.681
					c1.223-1.85,1.662-4.14,1.319-6.868c-0.188-1.499-0.723-2.715-1.601-3.644c-0.879-0.929-1.884-1.616-3.013-2.063
					c-1.131-0.446-2.207-0.606-3.23-0.478c-1.979,0.249-3.574,0.917-4.788,2.004c-1.214,1.088-2.158,2.402-2.83,3.941
					c-0.674,1.54-1.217,3.132-1.634,4.778l-2.786,0.35l-9.672-4.396c0.255-1.279,0.774-2.937,1.557-4.976
					c0.783-2.037,1.992-4.129,3.628-6.275c1.635-2.144,3.786-4.043,6.454-5.695c2.667-1.65,5.979-2.726,9.935-3.223
					c3.887-0.488,7.465-0.262,10.737,0.678c3.27,0.94,6,2.676,8.188,5.207c2.188,2.531,3.566,6.047,4.131,10.548
					c0.471,3.752,0.341,6.851-0.391,9.298c-0.732,2.448-1.748,4.568-3.046,6.358c-1.299,1.792-2.601,3.566-3.904,5.322
					c-1.015,1.306-1.962,2.724-2.843,4.254c-0.883,1.531-1.514,3.255-1.896,5.174c-0.383,1.918-0.411,4.174-0.086,6.765l0.27,2.148
					L247.111,188.71z M256.984,209.397c-2.455,0.308-4.552-0.103-6.286-1.236c-1.737-1.133-2.741-2.79-3.015-4.973
					c-0.266-2.113,0.312-3.988,1.736-5.622c1.422-1.633,3.327-2.6,5.715-2.9c2.386-0.3,4.438,0.17,6.152,1.41
					c1.714,1.24,2.705,2.917,2.97,5.031c0.274,2.184-0.257,4.033-1.589,5.551C261.333,208.175,259.44,209.088,256.984,209.397z"/>
			</g>
			<g>
				<path style="fill:#FFFFFF;" d="M244.325,189.061l-0.681-5.422c-0.428-3.41-0.361-6.31,0.206-8.703
					c0.565-2.391,1.41-4.489,2.535-6.294c1.124-1.804,2.286-3.439,3.488-4.907c1.628-1.935,3.052-3.829,4.274-5.681
					c1.223-1.85,1.662-4.14,1.319-6.868c-0.188-1.499-0.723-2.715-1.601-3.644c-0.88-0.929-1.883-1.616-3.013-2.064
					c-1.131-0.446-2.206-0.606-3.23-0.478c-1.979,0.249-3.574,0.916-4.788,2.004c-1.214,1.088-2.158,2.402-2.83,3.941
					c-0.674,1.54-1.217,3.132-1.634,4.778l-12.458-4.047c0.255-1.279,0.774-2.937,1.557-4.976c0.783-2.037,1.992-4.129,3.628-6.275
					c1.635-2.144,3.786-4.043,6.455-5.695c2.666-1.65,5.979-2.726,9.935-3.223c3.887-0.488,7.465-0.262,10.737,0.678
					c3.27,0.94,6,2.675,8.188,5.207c2.189,2.531,3.566,6.046,4.131,10.548c0.471,3.752,0.341,6.851-0.391,9.298
					c-0.732,2.448-1.748,4.568-3.046,6.358c-1.299,1.792-2.601,3.566-3.904,5.323c-1.015,1.306-1.962,2.724-2.843,4.254
					c-0.882,1.531-1.514,3.255-1.896,5.174c-0.383,1.918-0.411,4.174-0.085,6.766l0.27,2.148L244.325,189.061z M254.198,209.747
					c-2.455,0.309-4.551-0.103-6.286-1.236c-1.737-1.133-2.74-2.79-3.015-4.973c-0.266-2.113,0.312-3.988,1.736-5.622
					c1.422-1.633,3.327-2.6,5.715-2.9c2.386-0.3,4.438,0.17,6.152,1.409c1.714,1.24,2.705,2.917,2.97,5.031
					c0.274,2.184-0.257,4.033-1.589,5.551C258.547,208.525,256.653,209.439,254.198,209.747z"/>
			</g>
		</g>
	</g>
	<g>
		<path style="fill:#FF8775;" d="M101.687,479.882l-41.559-26.338l12.206-24.92l-29.65-11.158L21.85,464.113
			c0,0,29.453,13.423,49.86,21.144c20.407,7.721,35.093,8.151,35.093,8.151L101.687,479.882z"/>
		<polygon style="fill:#0A2A6B;" points="229.189,455.341 235.821,500 101.472,500 111.591,463.729 		"/>
		<path style="fill:#FF8775;" d="M123.293,268.668v48.138l-11.702,5.784c0,0,21.141,37.309,39.436,25.451
			c18.294-11.858,18.005-32.392,18.005-32.392l-14.172-0.578l-1.157-16.775l-22.848-33.26L123.293,268.668z"/>
		<path style="fill:#FF8775;" d="M124.225,225.746c-2.376,7.184-2.814,14.989-2.59,22.642c0.443,15.168,5.482,30.441,12.273,43.593
			c1.774,3.437,3.819,6.746,6.439,9.429c7.397,7.577,21.064,9.308,29.755,3.692c3.113-2.011,5.781-4.785,8.175-7.779
			c6.595-8.245,8.346-19.359,10.208-31.018c1.866-11.681,3.835-23.91,2.124-34.811c-0.972-6.193-3.934-8.831-7.242-13.923
			c-4.752-7.313-12.605-11.682-20.64-12.817c-8.248-1.166-16.533,1.045-24.384,3.72
			C131.523,210.798,126.583,218.617,124.225,225.746z"/>
		<path style="fill:#0A2A6B;" d="M128.973,225.768c3.874,14.121,2.465,29.626-3.891,42.818c-5.824-2.863-11.174-7.535-14.242-13.253
			c-3.068-5.718-4.671-12.131-5.435-18.575c-0.551-4.646-0.645-9.535,1.27-13.803c1.916-4.269,6.316-7.718,10.967-7.21
			c0.599-5.542,4.657-10.823,9.181-14.079c4.523-3.257,10.005-4.955,15.511-5.823c15.961-2.517,32.888,1.843,45.647,11.758
			c3.269,2.54,6.351,5.536,7.964,9.348c1.613,3.812,1.478,8.585-1.221,11.723c-3.201,3.721-8.724,4.114-13.631,4.231
			C162.523,233.342,145.762,233.717,128.973,225.768z"/>
		<g>
			<path style="fill:#FF8775;" d="M109.647,260.582c0.592,4.148,3.038,7.996,6.543,10.292c1.097,0.719,2.325,1.3,3.633,1.394
				c2.95,0.212,5.617-2.204,6.517-5.021c0.9-2.817,0.379-5.896-0.515-8.715c-1.155-3.645-3.373-7.47-7.096-8.341
				C112.728,248.786,108.915,255.443,109.647,260.582z"/>
			<path style="fill:#FF8775;" d="M123.293,268.668c-1.29-0.392-2.465-1.153-3.35-2.17c-0.178-0.204-0.35-0.431-0.394-0.698
				c-0.084-0.511,0.313-0.962,0.68-1.327c0.742-0.738,1.485-1.477,2.227-2.215c0.148-0.147,0.302-0.304,0.359-0.505
				c0.062-0.221-0.004-0.457-0.07-0.677c-0.84-2.807-1.835-5.833-4.254-7.488c-0.653-0.447-1.411-0.777-2.202-0.793
				c-1.174-0.022-2.275,0.66-3.028,1.562c-0.753,0.902-1.212,2.007-1.639,3.101c0,0-0.622,6.01,3.551,9.63
				C119.347,270.708,123.293,268.668,123.293,268.668z"/>
			<g>
				<path style="fill:#0A2A6B;" d="M111.624,257.458c0.318-1.17,0.732-2.341,1.496-3.371c0.771-0.989,2.001-1.819,3.434-1.73
					c1.414,0.102,2.55,0.918,3.459,1.818c0.91,0.935,1.555,2.063,2.061,3.204c0.494,1.154,0.854,2.334,1.19,3.503
					c0.039,0.145,0.095,0.322,0.113,0.554c0.026,0.222-0.038,0.546-0.176,0.752c-0.285,0.412-0.495,0.528-0.713,0.759l-1.328,1.241
					c-0.432,0.418-0.953,0.817-1.17,1.197c-0.107,0.197-0.13,0.35-0.043,0.554c0.087,0.203,0.293,0.439,0.478,0.659
					c0.747,0.903,1.751,1.589,2.867,2.069c-1.2-0.229-2.331-0.838-3.276-1.669c-0.229-0.218-0.459-0.416-0.662-0.748
					c-0.216-0.328-0.225-0.849-0.056-1.191c0.153-0.358,0.384-0.616,0.598-0.85l0.622-0.667l1.249-1.321
					c0.195-0.21,0.473-0.472,0.517-0.573c0.033-0.045,0.025-0.137-0.078-0.449c-0.364-1.148-0.723-2.288-1.201-3.354
					c-0.453-1.077-1.033-2.083-1.791-2.912c-0.744-0.828-1.716-1.518-2.743-1.673c-1.024-0.146-2.127,0.386-2.922,1.201
					C112.714,255.272,112.182,256.383,111.624,257.458z"/>
			</g>
		</g>
		<path style="fill:#55A3F3;" d="M117.458,319.69c0,0-42.423,19.675-49.364,26.327c-6.941,6.652-43.093,65.074-43.093,65.074
			s11.355,13.015,24.621,18.221s27.727,5.495,27.727,5.495l15.618-33.26l18.624,62.182c0,0,29.965,21.98,68.72,16.775
			c38.755-5.206,48.878-25.162,48.878-25.162l-7.52-53.396c0,0,14.461-3.58,24.005-11.1c9.544-7.52,20.824-21.691,20.824-21.691
			s-45.986-43.672-50.902-49.167c-4.917-5.495-51.196-4.527-51.196-4.527s1.739,17.253-12.143,20.145
			C138.374,338.497,117.458,319.69,117.458,319.69z"/>
		<path style="fill:#0A2A6B;" d="M154.376,308.052c-5.132-1.054-9.848-3.629-13.861-6.997c-3.607-3.028-6.489-6.811-9.338-10.561
			c1.05,2.346,1.74,4.106,3.117,6.277c2.309,3.641,4.968,7.111,8.301,9.845c3.333,2.734,7.751,4.966,12.048,5.315"/>
		<path style="fill:#0A2A6B;" d="M157.395,254.742c0,2.031-1.127,3.678-2.518,3.678c-1.391,0-2.518-1.647-2.518-3.678
			s1.127-3.678,2.518-3.678C156.268,251.064,157.395,252.711,157.395,254.742z"/>
		<path style="fill:#0A2A6B;" d="M182.808,254.742c0,2.031-1.127,3.678-2.518,3.678c-1.39,0-2.518-1.647-2.518-3.678
			s1.127-3.678,2.518-3.678C181.681,251.064,182.808,252.711,182.808,254.742z"/>
		<g>
			<path style="fill:#0A2A6B;" d="M170.328,250c1.076,1.923,1.972,3.955,2.705,6.043c0.734,2.089,1.32,4.232,1.759,6.407
				c0.451,2.173,0.73,4.382,0.874,6.6c0.129,2.22,0.108,4.454-0.142,6.672l-0.057,0.502l-0.481-0.011
				c-1.855-0.043-3.71-0.099-5.566-0.188c-1.855-0.093-3.71-0.195-5.566-0.352c1.855-0.156,3.71-0.259,5.566-0.352
				c1.855-0.089,3.71-0.145,5.566-0.188l-0.537,0.491c0.276-4.322-0.051-8.679-0.769-12.968c-0.363-2.145-0.82-4.277-1.376-6.388
				C171.744,254.157,171.102,252.064,170.328,250z"/>
		</g>
		<ellipse style="fill:#0A2A6B;" cx="169.048" cy="289.805" rx="4.687" ry="2"/>
		<g>
			<path style="fill:#0A2A6B;" d="M143.662,248.567c0.712-1.872,1.908-3.57,3.325-5.074c1.445-1.483,3.169-2.716,5.068-3.643
				c0.944-0.464,1.903-0.93,2.901-1.311c0.999-0.375,2.053-0.568,3.11-0.569c2.111,0.019,4.225,0.469,6.071,1.76l-0.039,0.398
				c-2.025,0.914-3.822,1.355-5.578,1.816c-0.875,0.22-1.741,0.361-2.633,0.443c-0.892,0.076-1.795,0.191-2.66,0.44
				c-0.863,0.243-1.714,0.554-2.541,0.93c-0.837,0.36-1.652,0.787-2.432,1.283c-1.594,0.956-3.009,2.227-4.245,3.726
				L143.662,248.567z"/>
		</g>
		<g>
			<path style="fill:#0A2A6B;" d="M188.317,248.754c-1.081-1.426-2.304-2.678-3.71-3.647c-1.379-0.99-2.876-1.758-4.417-2.29
				c-0.774-0.265-1.59-0.401-2.395-0.495c-0.804-0.102-1.582-0.247-2.368-0.469c-0.787-0.221-1.592-0.449-2.43-0.73
				c-0.84-0.269-1.708-0.561-2.648-1.004l-0.041-0.376c0.838-0.637,1.758-1.025,2.706-1.281c0.95-0.27,1.933-0.377,2.918-0.359
				c0.985,0.017,1.964,0.231,2.881,0.614c0.916,0.392,1.784,0.869,2.637,1.348c1.712,0.957,3.223,2.207,4.452,3.663
				c1.203,1.476,2.184,3.104,2.751,4.853L188.317,248.754z"/>
		</g>
		<path style="fill:none;stroke:#0A2A6B;stroke-miterlimit:10;" d="M111.591,322.59c0,0,22.358,22.061,43.052,17.418
			c20.721-4.649,16.072-24.614,16.072-24.614"/>
		<g>
			<path style="fill:#0A2A6B;" d="M222.134,403.974c-0.533-5.174-1.076-10.34-1.721-15.492c-0.647-5.151-1.324-10.298-2.168-15.42
				c-0.764-5.134-1.688-10.242-2.648-15.345c-0.478-2.552-0.985-5.099-1.509-7.643l-1.584-7.635c0.742,2.493,1.397,5.01,2.062,7.526
				c0.622,2.526,1.214,5.059,1.785,7.598c1.119,5.083,2.038,10.208,2.882,15.344c0.763,5.149,1.457,10.309,1.942,15.491
				C221.662,393.58,222.013,398.773,222.134,403.974z"/>
		</g>
		<path style="fill:none;stroke:#0A2A6B;stroke-miterlimit:10;" d="M261.276,364.188c0,0-7.807,13.2-16.733,19.522
			c-8.926,6.323-23.041,11.9-23.041,11.9"/>
		<g>
			<path style="fill:#0A2A6B;" d="M91.805,403.414c1.408-4.215,2.58-8.498,3.319-12.853c0.736-4.351,1.105-8.768,0.84-13.163
				c-0.185-4.394-1.012-8.755-2.404-12.931c-0.69-2.09-1.547-4.129-2.568-6.086c-0.993-1.974-2.185-3.846-3.499-5.639
				c1.492,1.651,2.779,3.486,3.928,5.402c1.122,1.934,2.073,3.969,2.864,6.066c1.57,4.202,2.41,8.661,2.676,13.137
				c0.186,4.481-0.177,8.979-1.085,13.355C94.972,395.079,93.599,399.345,91.805,403.414z"/>
		</g>
		<path style="fill:none;stroke:#0A2A6B;stroke-miterlimit:10;" d="M28.101,406.108c0,0,6.861,9.402,21.738,16.654
			c14.877,7.253,30.361,5.974,30.361,5.974"/>
		<g style="opacity:0.31;">
			<g>
				<path style="fill:#FFFFFF;" d="M118.491,211.316c1.549,0.876,3.145,1.656,4.798,2.295c1.661,0.614,3.352,1.145,5.082,1.517
					c3.447,0.787,6.982,1.148,10.516,1.205c7.079,0.154,14.128-0.806,21.21-1.54c3.546-0.331,7.11-0.599,10.689-0.616
					c1.788-0.004,3.58,0.035,5.366,0.185c1.786,0.123,3.575,0.359,5.331,0.765c3.489,0.787,6.98,2.294,9.441,5.005
					c1.202,1.353,2.136,2.946,2.651,4.674c0.543,1.717,0.575,3.589,0.073,5.296c0.818-3.514-0.657-7.169-3.083-9.636
					c-2.432-2.533-5.827-3.91-9.244-4.587c-6.931-1.28-14.089-0.805-21.126-0.092c-7.06,0.647-14.168,1.631-21.331,1.311
					c-3.571-0.151-7.143-0.602-10.608-1.497C124.801,214.678,121.46,213.287,118.491,211.316z"/>
			</g>
			<g>
				<path style="fill:#FFFFFF;" d="M125.722,202.616c1.16,0.381,2.339,0.684,3.529,0.918c1.195,0.214,2.4,0.348,3.608,0.417
					c2.417,0.142,4.841,0.015,7.242-0.288c4.808-0.597,9.518-1.831,14.282-2.921c4.768-1.006,9.674-1.907,14.618-1.55
					c2.46,0.184,4.906,0.631,7.235,1.443c2.312,0.849,4.504,2.052,6.326,3.686c-0.985-0.722-2.024-1.357-3.102-1.907
					c-1.091-0.53-2.222-0.962-3.377-1.313c-2.311-0.702-4.715-1.053-7.123-1.141c-4.828-0.191-9.629,0.68-14.362,1.758
					c-4.754,1.001-9.509,2.264-14.415,2.706c-2.447,0.215-4.916,0.259-7.364,0.013C130.379,204.153,127.961,203.598,125.722,202.616
					z"/>
			</g>
			<g>
				<path style="fill:#FFFFFF;" d="M124.254,224.963c0.305,1.189,0.264,2.456,0.062,3.679c-0.232,1.222-0.652,2.402-1.157,3.532
					c-1.018,2.26-2.457,4.316-4.115,6.156c-1.696,1.806-3.624,3.407-5.779,4.623c-2.132,1.248-4.461,2.144-6.856,2.624
					c1.133-0.461,2.266-0.889,3.33-1.468c1.081-0.536,2.131-1.129,3.12-1.81c1.997-1.332,3.829-2.891,5.449-4.646
					c1.616-1.758,3.019-3.714,4.164-5.819c0.57-1.051,1.049-2.152,1.369-3.303C124.192,227.388,124.335,226.183,124.254,224.963z"/>
			</g>
			<g>
				<path style="fill:#FFFFFF;" d="M115.207,219.685c-0.414,2.714-1.718,5.287-3.511,7.402c-1.799,2.112-4.131,3.81-6.742,4.691
					l-0.323,0.109l0.151-0.277c0.167-0.306,0.347-0.607,0.533-0.906c-0.091,0.339-0.188,0.676-0.297,1.008l-0.172-0.168
					c2.307-1.414,4.364-3.104,6.101-5.103C112.691,224.447,114.085,222.175,115.207,219.685z"/>
			</g>
		</g>
		<path style="fill:#FF8775;" d="M105.305,493.316c0,0,5.272-1.115,7.507-2.785c2.236-1.67,4.292-4.247,4.599-7.021
			c2.865,0.355,4.988,2.775,7.607,3.99c0.301,0.14,0.655,0.263,0.954,0.119c0.487-0.235,0.437-0.938,0.284-1.456
			c-1.629-5.511-6.636-10.056-12.327-10.854c2.78,0.387,5.614,0.791,8.134,2.027c1.763,0.865,3.372,2.135,5.297,2.521
			c0.194,0.039,0.409,0.065,0.576-0.04c0.176-0.11,0.245-0.332,0.265-0.539c0.103-1.071-0.725-1.987-1.53-2.701
			c-4.335-3.848-9.591-6.289-15.325-7.132c5.694-1.054,11.748-0.044,16.792,2.8c0.513,0.289,1.044,0.606,1.632,0.63
			c0.589,0.025,1.243-0.366,1.276-0.954c0.014-0.247-0.081-0.487-0.185-0.711c-1.029-2.231-3.046-3.852-5.169-5.088
			c-5.354-3.117-11.861-4.494-17.956-3.38c5.505-2.122,11.735-2.307,17.356-0.515c1.544,0.492,3.055,1.131,4.658,1.366
			c0.186,0.027,0.396,0.043,0.541-0.076c0.259-0.213,0.101-0.63-0.083-0.91c-2.448-3.711-6.598-6.15-10.98-6.9
			c-4.382-0.751-9.387-0.801-12.846,1.991c0,0-1.769,3.749-2.512,8.37c-0.743,4.622-2.185,13.814-2.185,13.814l-4.388,0.219
			l7.128,13.141L105.305,493.316z"/>
		<path style="fill:#FF8775;" d="M255.973,381.19c0,0-3.589,4.206-10.655,9.406c-4.659,3.429-11.456,7.076-11.456,7.076
			l24.764,33.154l-19.053,32.601c0,0-3.217-8.571-4.851-12.876c-1.634-4.306-4.084-7.566-4.084-7.566
			c-3.888-2.004-8.701-0.96-12.774,0.634c-4.073,1.594-7.588,4.769-9.209,8.831c-0.122,0.307-0.192,0.74,0.101,0.893
			c0.048,0.025,0.098,0.038,0.15,0.042c0.823,0.067,1.608-0.35,2.278-0.833c5.465-3.943,12.519-5.54,19.153-4.439
			c-7.278,0.165-14.417,3.87-19.101,9.354c-0.937,1.097-1.61,2.469-1.565,3.911c0.002,0.072,0.011,0.144,0.03,0.214
			c0.149,0.56,0.857,0.807,1.419,0.666c0.562-0.141,1.011-0.551,1.448-0.932c4.295-3.743,9.928-5.919,15.624-6.036
			c-5.358,1.953-9.937,5.35-13.35,9.919c-0.633,0.848-1.25,1.895-0.938,2.907c0.06,0.195,0.171,0.396,0.362,0.467
			c0.182,0.068,0.385,0,0.564-0.076c1.779-0.754,3.076-2.298,4.603-3.482c2.182-1.692,4.833-2.645,7.435-3.57
			c-5.326,1.9-9.247,7.274-9.721,12.909c-0.045,0.53,0.047,1.218,0.563,1.347c0.316,0.079,0.633-0.11,0.895-0.304
			c2.282-1.691,3.846-4.446,6.537-5.357c0.848,2.612,3.341,4.686,5.827,5.851c2.486,1.165,4.97,1.155,4.97,1.155l0.039-0.002
			c4.765-0.189,9.305-2.08,12.795-5.33l42.401-46.845L255.973,381.19z"/>
		<g>
			<path style="fill:#0A2A6B;" d="M254.445,437.98c1.217-2.661,2.649-5.218,4.21-7.698c1.565-2.478,3.304-4.855,5.296-7.047
				c0.995-1.088,2.126-2.094,3.339-2.958c1.213-0.846,2.475-1.62,3.797-2.275c2.628-1.327,5.408-2.379,8.297-2.877
				c-1.392,0.443-2.752,0.962-4.069,1.573c-1.327,0.584-2.62,1.239-3.866,1.969c-2.498,1.468-4.875,3.089-6.78,5.24
				c-1.995,2.074-3.704,4.43-5.387,6.794c-0.849,1.179-1.657,2.389-2.453,3.608C256.006,435.513,255.235,436.75,254.445,437.98z"/>
		</g>
		<g>
			<path style="fill:#0A2A6B;" d="M67.287,458.081l-2.947-1.677c-0.975-0.566-1.955-1.122-2.943-1.663
				c-1.004-0.533-1.947-1.121-2.963-1.522c-1.013-0.426-2.056-0.798-3.131-1.071c-2.135-0.598-4.345-0.945-6.564-1.166
				c-2.225-0.205-4.468-0.217-6.722,0.005c1.088-0.323,2.215-0.499,3.347-0.65c1.135-0.095,2.277-0.147,3.419-0.123
				c2.285,0.043,4.566,0.372,6.786,0.97c1.108,0.302,2.197,0.693,3.251,1.173c1.064,0.487,2.039,1.107,2.973,1.728
				C63.689,455.323,65.555,456.615,67.287,458.081z"/>
		</g>
	</g>
	<g>
		<g>
			<g>
				<path style="fill:#FF8775;" d="M318.359,360.083c0,0-6.07-12.501-10.186-15.513c-4.116-3.011-14.121-6.475-16.032-6.402
					c-1.911,0.073-0.878,3.946-0.056,4.7c0.821,0.754,6.661,4.742,6.661,4.742s-9.749-3.461-11.97-5.207
					c-2.221-1.746-15.023-14.32-16.44-13.859c-1.417,0.46-0.151,5.634,1.815,7.855c1.966,2.221,13.614,12.679,13.614,12.679
					s-19.309-15.613-20.644-15.056c-1.335,0.557-2.533,10.382,2.875,16.371c5.408,5.988,14.2,10.966,17.608,12.058
					c3.408,1.092,14.611,2.876,14.611,2.876l4.129,4.342L318.359,360.083z"/>
				<g>
					<path style="fill:#0A2A6B;" d="M298.724,347.547c0.302,2.043,0.779,3.98,1.554,5.819c0.759,1.846,1.796,3.549,3.028,5.206
						c-1.698-1.196-2.977-2.963-3.786-4.891C298.726,351.746,298.375,349.594,298.724,347.547z"/>
				</g>
				<g>
					<path style="fill:#0A2A6B;" d="M265.413,345.584c-0.002-0.523,0.577-0.876,1.092-0.848c0.541,0.033,0.988,0.361,1.363,0.671
						c0.731,0.642,1.454,1.272,2.199,1.885c1.488,1.223,2.984,2.433,4.528,3.58c1.531,1.164,3.112,2.26,4.704,3.345
						c1.597,1.078,3.232,2.102,4.872,3.141c-1.798-0.736-3.526-1.63-5.208-2.605c-1.687-0.968-3.301-2.061-4.861-3.223
						c-1.549-1.177-3.051-2.419-4.453-3.767c-0.699-0.674-1.388-1.367-2.054-2.062c-0.319-0.342-0.672-0.664-1.11-0.747
						C266.07,344.885,265.507,345.083,265.413,345.584z"/>
				</g>
				<g>
					<path style="fill:#0A2A6B;" d="M264.107,340.136c0.123-0.509,0.287-1.031,0.657-1.455c0.18-0.212,0.441-0.384,0.744-0.435
						c0.3-0.053,0.62,0.033,0.871,0.176c0.502,0.31,0.842,0.698,1.245,1.032l1.186,1.029c1.589,1.361,3.196,2.701,4.863,3.968
						c1.626,1.319,3.312,2.564,4.979,3.839c1.666,1.276,3.345,2.542,4.973,3.881c-1.822-1.059-3.592-2.195-5.341-3.368
						c-1.749-1.172-3.44-2.43-5.118-3.707c-1.636-1.33-3.267-2.674-4.779-4.148l-1.119-1.12c-0.376-0.366-0.724-0.792-1.1-1.066
						c-0.368-0.294-0.885-0.282-1.25,0.072C264.552,339.17,264.31,339.655,264.107,340.136z"/>
				</g>
			</g>
			<polygon style="fill:#FF8775;" points="300.216,365.327 330.882,465.875 348.178,430.507 318.359,360.083 			"/>
		</g>
		<path style="fill:#FF8775;" d="M389.704,276.125c0,0,18.802-21.356,17.342-35.474c-0.628-6.074-2.29-12.041-4.892-17.565
			c-1.795-3.811-4.101-7.487-7.405-10.101c-4.21-3.33-9.619-4.637-14.81-6.006c-7.641-2.015-15.483-4.372-23.308-3.272
			c-5.807,0.816-11.304,3.243-16.505,5.953c-6.551,3.413-9.104,10.039-11.517,17.021c-2.412,6.982-3.892,14.337-3.915,21.724
			c-0.009,2.884,0.04,5.817-0.756,8.589c-1.264,4.403-9.643,11.257-9.643,11.257s5.711,2.999,8.555,3.61
			c1.089,3.743,1.955,6.955,2.91,10.111c0.114-0.008,0.225-0.022,0.343-0.022c1.795,0,4.339,0.956,4.339,2.106
			c0,0.935-2.057,1.694-3.381,1.957c0.721,2.113,1.529,4.282,2.538,6.658c0.76,1.79,3.392,6.486,4.99,7.593
			c1.622,1.124,3.72,1.259,5.693,1.213c5.743-0.134,11.454-1.491,16.643-3.954c0.414,2.466,0.381,4.419,0.604,6.909
			c0.171,1.919,0.285,3.862-0.01,5.767c-0.657,4.248-3.256,7.904-5.78,11.383c5.845,2.526,12.329,1.948,18.622,0.983
			c6.946-1.065,14.384-2.737,19.003-8.034c1.763,0.039,1.211-0.309,1.747-1.989c0.535-1.681,0.387-5.253,0.387-5.253
			L389.704,276.125z"/>
		<path style="fill:#0A2A6B;" d="M391.5,307.288c0,0-8.804,7.519-20.103,10.6c-11.298,3.081-17.833,1.117-17.833,1.117
			s-16.742,25.267-19.421,60.893S327.449,500,327.449,500h20.979h95.077L419.22,378.03l22.5-10.266c0,0-9.424-23.037-18.609-37.737
			C411.234,311.02,391.5,307.288,391.5,307.288z"/>
		<polygon style="fill:#FF8775;" points="429.79,373.207 398.749,387.089 414.27,434.602 388.757,500 409.274,500 441.446,432.511 
					"/>
		<g>
			<path style="fill:#FFFFFF;" d="M398.749,387.089l-6.561,3.323c-2.187,1.108-4.382,2.199-6.583,3.277l-0.285,0.14l-0.121-0.3
				c-2.194-5.47-4.268-10.984-6.172-16.561c-1.915-5.572-3.759-11.177-5.197-16.909c-0.744-2.855-1.37-5.758-1.768-8.697
				c-0.405-2.938-0.538-5.902-0.535-8.856c0.028-5.909,0.642-11.809,1.885-17.567c-0.918,5.815-1.312,11.699-1.211,17.56
				c0.057,2.931,0.317,5.852,0.716,8.745c0.417,2.89,1.057,5.747,1.822,8.58c1.513,5.667,3.296,11.272,5.151,16.85
				c0.93,2.789,1.907,5.562,2.885,8.336c0.967,2.777,1.957,5.548,2.98,8.303l-0.406-0.161c2.223-1.033,4.452-2.051,6.69-3.054
				L398.749,387.089z"/>
		</g>
		<path style="fill:#0A2A6B;" d="M356.444,297.673c4.227-2.736,7.91-6.31,10.774-10.452c-1.92,5.599-5.672,11.523-9.795,15.769
			L356.444,297.673z"/>
		<path style="fill:#0A2A6B;" d="M335.235,255.393c0,1.802-0.974,3.263-2.176,3.263c-1.202,0-2.176-1.461-2.176-3.263
			c0-1.802,0.974-3.263,2.176-3.263C334.261,252.13,335.235,253.591,335.235,255.393z"/>
		<g>
			<path style="fill:#0A2A6B;" d="M342.149,252.6c-0.813-1.419-1.791-2.699-2.964-3.744c-1.15-1.059-2.441-1.922-3.804-2.55
				c-1.385-0.633-2.886-0.742-4.274-1.21c-1.425-0.446-2.879-0.803-4.606-1.352l-0.05-0.296c1.504-1.096,3.373-1.427,5.174-1.308
				c1.839,0.097,3.471,1.095,4.938,2.076c1.488,0.986,2.76,2.24,3.756,3.656c0.974,1.43,1.729,2.986,2.11,4.618L342.149,252.6z"/>
		</g>
		<g>
			<path style="fill:#0A2A6B;" d="M397.009,286.149c0.049,1.076,0.708,2.013,1.111,3.013c0.402,1,0.462,2.335-0.411,2.967
				c-0.572,0.414-1.346,0.375-2.044,0.276c-7.539-1.064-13.982-7.536-15.012-15.08c0.071,1.217,0.142,2.434,0.214,3.651
				c0.03,0.507,0.044,1.064-0.27,1.463c-0.357,0.453-1.018,0.535-1.588,0.451c-2.099-0.311-3.53-2.236-4.641-4.044
				c-6.55-10.658-15.769-17.621-15.769-17.621s-6.046-13.253,4.801-28.662c-4.485,3.531-9.738,5.505-15.369,6.443
				c-0.681,0.113-1.394,0.204-2.051-0.008c-0.657-0.212-1.24-0.812-1.206-1.502c0.022-0.454,0.296-0.854,0.568-1.218
				c1.48-1.981,3.229-3.76,5.186-5.272c-7.073,3.501-15.619,4.566-23.506,4.861c-1.066,0.04-2.473-0.207-2.611-1.265
				c-0.064-0.488,0.203-0.955,0.481-1.362c0.892-1.306,2.011-2.457,3.29-3.386c-4.942,2.271-9.951,4.274-15.087,2.484
				c-1.131-0.394-2.246-1.017-2.871-2.038c-0.625-1.021-0.598-2.508,0.313-3.285c0.417-0.356,0.956-0.525,1.47-0.716
				c6.861-2.547,10.693-9.632,15.633-15.032c6.477-7.081,15.635-11.647,25.188-12.56c-1.563-0.571-3.087-1.6-4.35-2.684
				c-0.583-0.501-1.165-1.144-1.142-1.912c0.034-1.154,1.335-1.786,2.442-2.113c9.099-2.688,19.09-2.255,27.922,1.211
				s16.451,9.943,21.294,18.102c-0.121-2.311-0.263-4.223-0.384-6.535c-0.065-1.236,0.095-2.818,1.276-3.19
				c0.788-0.248,1.62,0.23,2.224,0.793c2.715,2.534,2.999,6.667,3.103,10.379c2.242,0.544,4.243,1.351,6.134,2.672
				c1.891,1.322,3.423,3.278,3.841,5.547c0.061,0.331,0.067,0.74-0.212,0.928c-0.192,0.129-0.446,0.098-0.674,0.061
				c-2.408-0.395-4.79-0.954-7.123-1.671c5.862,5.243,8.137,14.04,7.501,21.879c-0.637,7.839-3.84,15.236-7.493,22.201
				C403.53,271.342,396.651,278.293,397.009,286.149z"/>
			<g style="opacity:0.29;">
				<g>
					<path style="fill:#FFFFFF;" d="M327.198,229.566c2.125-0.22,3.905-1.51,5.468-2.862c1.587-1.368,3.033-2.887,4.456-4.428
						c2.844-3.077,5.534-6.359,8.855-9.049c3.322-2.683,7.363-4.499,11.587-5.2c4.22-0.713,8.637-0.383,12.675,1.093l-0.537,0.746
						c-0.529-0.677-0.979-1.416-1.332-2.199c-0.178-0.391-0.331-0.792-0.46-1.202c-0.12-0.406-0.262-0.822-0.267-1.342
						c-0.022-0.516,0.26-1.122,0.708-1.427c0.439-0.316,0.919-0.425,1.371-0.479c0.926-0.077,1.728,0.042,2.576,0.177
						c3.36,0.603,6.297,2.253,9.192,3.789c5.791,3.167,11.177,6.962,16.5,10.807c-5.524-3.554-11.02-7.169-16.83-10.188
						c-2.917-1.457-5.861-2.993-9.011-3.545c-0.769-0.122-1.614-0.221-2.326-0.15c-0.358,0.042-0.703,0.144-0.931,0.316
						c-0.226,0.174-0.334,0.392-0.332,0.699c-0.001,0.306,0.114,0.684,0.233,1.06c0.12,0.373,0.263,0.739,0.429,1.094
						c0.328,0.712,0.744,1.382,1.231,1.995l1.027,1.293l-1.565-0.547c-3.89-1.359-8.12-1.707-12.196-1.063
						c-4.085,0.643-7.971,2.36-11.225,4.925c-3.297,2.537-6.059,5.733-8.988,8.756c-1.467,1.513-3.004,2.97-4.653,4.291
						C331.229,228.234,329.339,229.472,327.198,229.566z"/>
				</g>
				<g>
					<path style="fill:#FFFFFF;" d="M395.204,222.241c-3.575-2.231-7.722-3.451-11.863-3.451c-2.068,0.008-4.127,0.311-6.134,0.828
						c-2.003,0.54-3.959,1.267-5.866,2.121c-3.843,1.637-7.554,3.679-11.421,5.375c-1.929,0.857-3.868,1.69-5.82,2.49
						c-1.965,0.769-3.927,1.543-5.922,2.229c1.909-0.897,3.831-1.758,5.726-2.678c1.908-0.89,3.806-1.798,5.688-2.737l5.642-2.828
						c1.878-0.955,3.766-1.911,5.71-2.768c3.886-1.656,8.091-2.969,12.413-2.798c2.143,0.093,4.266,0.49,6.278,1.194
						C391.632,219.954,393.535,220.947,395.204,222.241z"/>
				</g>
				<g>
					<path style="fill:#FFFFFF;" d="M399.358,225.594c3.353,4.518,4.936,10.365,4.334,16.041
						c-0.564,5.692-3.401,11.095-7.642,14.944l-0.374-0.842c0.539-0.063,1.121,0.127,1.521,0.457
						c0.403,0.33,0.678,0.742,0.882,1.164c0.42,0.836,0.494,1.817,0.451,2.665c-0.063,1.751-0.564,3.429-1.22,4.993
						c-1.318,3.142-3.327,5.854-4.404,8.929c-1.091,3.055-1.099,6.48-0.179,9.624c0.891,3.157,2.733,6.074,5.328,8.174
						c-2.744-1.912-4.756-4.822-5.822-8.022c-1.044-3.21-1.156-6.77-0.1-10.039c1.076-3.261,3.1-6,4.315-9.025
						c0.615-1.505,1.06-3.08,1.1-4.668c0.032-0.809-0.051-1.535-0.367-2.21c-0.302-0.669-0.825-1.153-1.402-1.081l-1.552,0.195
						l1.178-1.037c4.135-3.64,6.814-8.841,7.573-14.307C403.698,236.068,402.397,230.317,399.358,225.594z"/>
				</g>
				<g>
					<path style="fill:#FFFFFF;" d="M381.544,279.628c-1.482-4.383-2.387-8.975-2.701-13.618c-0.317-4.643,0.035-9.34,1.014-13.905
						c1.057-4.547,2.762-8.957,5.183-12.947c1.216-1.99,2.588-3.881,4.116-5.635c1.552-1.731,3.231-3.349,5.08-4.742
						c-1.702,1.565-3.295,3.239-4.703,5.056c-1.433,1.795-2.714,3.707-3.828,5.709c-2.239,3.994-3.912,8.305-4.873,12.777
						c-1.04,4.458-1.373,9.064-1.224,13.648C379.76,270.561,380.46,275.135,381.544,279.628z"/>
				</g>
			</g>
		</g>
		<g>
			<path style="fill:#FF8775;" d="M375.753,258.109c-0.592,4.148-3.038,7.996-6.543,10.292c-1.097,0.719-2.325,1.3-3.633,1.394
				c-2.95,0.212-5.617-2.204-6.517-5.022c-0.9-2.817-0.379-5.895,0.515-8.715c1.155-3.645,3.373-7.47,7.096-8.341
				C372.673,246.313,376.486,252.971,375.753,258.109z"/>
			<path style="fill:#FF8775;" d="M362.107,266.196c1.29-0.392,2.465-1.153,3.35-2.17c0.178-0.204,0.35-0.431,0.394-0.698
				c0.084-0.511-0.313-0.962-0.68-1.327c-0.742-0.738-1.485-1.477-2.227-2.215c-0.148-0.148-0.302-0.304-0.359-0.506
				c-0.062-0.221,0.004-0.456,0.07-0.677c0.841-2.807,1.835-5.833,4.254-7.488c0.653-0.447,1.411-0.777,2.202-0.792
				c1.174-0.023,2.275,0.66,3.028,1.561c0.753,0.902,1.212,2.007,1.639,3.102c0,0,0.622,6.01-3.551,9.63
				S362.107,266.196,362.107,266.196z"/>
			<g>
				<path style="fill:#0A2A6B;" d="M373.777,254.986c-0.558-1.076-1.09-2.187-1.925-2.997c-0.795-0.814-1.898-1.346-2.922-1.201
					c-1.027,0.155-1.999,0.844-2.743,1.673c-0.758,0.829-1.339,1.836-1.791,2.912c-0.478,1.067-0.836,2.206-1.201,3.354
					c-0.103,0.312-0.111,0.405-0.079,0.45c0.044,0.101,0.322,0.363,0.517,0.573l1.249,1.321l0.622,0.667
					c0.214,0.235,0.445,0.493,0.598,0.85c0.169,0.343,0.16,0.863-0.056,1.191c-0.203,0.332-0.433,0.529-0.662,0.748
					c-0.945,0.832-2.076,1.44-3.276,1.669c1.116-0.48,2.12-1.167,2.867-2.069c0.185-0.22,0.39-0.456,0.478-0.659
					c0.087-0.204,0.064-0.357-0.043-0.554c-0.217-0.38-0.738-0.78-1.17-1.197l-1.328-1.241c-0.218-0.23-0.428-0.347-0.713-0.759
					c-0.138-0.206-0.202-0.531-0.176-0.752c0.018-0.232,0.074-0.409,0.112-0.554c0.336-1.169,0.695-2.35,1.19-3.503
					c0.506-1.142,1.151-2.27,2.061-3.204c0.909-0.9,2.046-1.716,3.459-1.818c1.434-0.089,2.663,0.741,3.434,1.73
					C373.044,252.645,373.459,253.816,373.777,254.986z"/>
			</g>
		</g>
	</g>
</g>
</svg>
