<svg xmlns="http://www.w3.org/2000/svg" version="1.1" viewBox="-5.0 -10.0 110.0 135.0">
 <path d="m52.664 26.703v4.7891l2.7148 1.2539 0.54297 1.3125-1.0312 2.8086 3.3789 3.3867 2.8086-1.0391 1.3086 0.54297 1.2539 2.7188h4.7891l1.2539-2.7188 1.3086-0.54297 2.8086 1.0352 3.3828-3.3828-1.0312-2.8086 0.54297-1.3125 2.7148-1.2539v-4.7891l-2.7148-1.2539-0.54297-1.3125 1.0312-2.8086-3.3828-3.3828-2.8086 1.0352-1.3125-0.54297-1.2539-2.7148h-4.7891l-1.2539 2.7148-1.3125 0.54297-2.8086-1.0391-3.3789 3.3867 1.0312 2.8086-0.54297 1.3125-2.7148 1.2539zm13.371-4.4258c3.7578 0 6.8164 3.0586 6.8164 6.8203 0 3.7617-3.0586 6.8164-6.8164 6.8164-3.7617 0-6.8203-3.0586-6.8203-6.8164 0-3.7617 3.0586-6.8203 6.8203-6.8203zm-43.363-0.14844c0.078125-2.9688 2.1992-5.3203 4.7383-5.25 2.543 0.066406 4.5391 2.5195 4.4609 5.4883-0.074219 2.9648-2.1992 5.3125-4.7383 5.25-2.5391-0.066407-4.5391-2.5234-4.4609-5.4883zm39.176 6.9727c0-2.3086 1.8789-4.1875 4.1875-4.1875s4.1836 1.8789 4.1836 4.1875c0 2.3086-1.8789 4.1836-4.1836 4.1836-2.3086 0-4.1875-1.8789-4.1875-4.1836zm17.434-9.7812c-0.43359-0.58594-0.30859-1.4102 0.27344-1.8438 0.58594-0.43359 1.4102-0.30859 1.8438 0.27344 1.418 1.9141 2.4531 4.0703 3.0781 6.4023 2.7266 10.168-3.3281 20.66-13.5 23.387-1.6406 0.44141-3.3086 0.65625-4.9648 0.65625-3.2656 0-6.4844-0.84375-9.3633-2.4727 0.082031 0.64453-0.32031 1.2656-0.96484 1.4375-0.11328 0.03125-0.23047 0.046875-0.34375 0.046875-0.58203 0-1.1133-0.38672-1.2695-0.97656l-0.77344-2.8867c-0.089844-0.33984-0.042969-0.69531 0.13281-1 0.17578-0.30469 0.46484-0.52344 0.80078-0.61328l2.8828-0.76953c0.70312-0.1875 1.4258 0.23047 1.6133 0.93359 0.17188 0.64453-0.16406 1.3008-0.76172 1.5508 3.7383 2.1055 8.1367 2.6758 12.332 1.5508 8.7695-2.3516 13.988-11.395 11.641-20.16-0.53906-2.0117-1.4297-3.8672-2.6523-5.5156zm-56.859 27.77v-13.387c0-2.1602 1.7656-3.918 3.918-3.918h0.61719c1.3906-0.019531 2.4805 0.73828 3.4727 1.625l7.3867 6.4805 5.043-1.8398c1.2656-0.46875 2.6797 0.19141 3.1445 1.4609 0.46094 1.2695-0.19531 2.6836-1.4648 3.1445l-5.3203 1.9453c-1.3477 0.48828-2.7188 0.32031-3.9102-0.48047l-3.8594-2.6133 0.015625 6.3086 6.8789 2.5195c1.0742 0.39062 1.7578 1.3633 1.7578 2.5039v10.582c0 1.4609-1.1953 2.6562-2.6562 2.6562-1.4609 0-2.6562-1.1953-2.6562-2.6562v-8.3711l-7.8516-1.4375c-2.4453-0.44922-4.5195-2.0391-4.5156-4.5273zm28.902 10.703h16.395v32.199h-16.395zm-35.645 9.4766c-1.0469-0.98828-1.0938-2.6484-0.10547-3.6953l6.8398-7.2422 0.003907-3.9102c1.0859 0.86719 2.4648 1.4922 4.0469 1.7852l1.5508 0.28516-0.38281 3.3516c-0.042968 0.39062-0.11719 0.71484-0.39062 0.98828l-7.8711 8.332c-0.98438 1.0469-2.6445 1.0938-3.6914 0.10547zm71.078-17.785v40.512h-16.395v-40.512zm-35.031-8.5078c-0.40234 0-0.80469-0.18359-1.0625-0.53516-1.4219-1.9258-2.4531-4.0781-3.0781-6.3984-2.7266-10.168 3.3281-20.66 13.5-23.387 4.8438-1.3008 9.9922-0.62891 14.336 1.8203-0.085937-0.64453 0.31641-1.2695 0.96484-1.4414 0.70312-0.1875 1.4258 0.22656 1.6133 0.92969l0.77344 2.8867c0.089843 0.33984 0.042968 0.69531-0.13281 1-0.17578 0.30469-0.46484 0.52344-0.80078 0.61328l-2.8867 0.76953c-0.11328 0.03125-0.22656 0.046875-0.33984 0.046875-0.58203 0-1.1133-0.39062-1.2734-0.97656-0.17188-0.64063 0.16406-1.2969 0.75781-1.5508-3.7383-2.1016-8.1641-2.6719-12.328-1.5547-8.7656 2.3516-13.988 11.395-11.641 20.16 0.53516 2 1.4297 3.8555 2.6523 5.5195 0.43359 0.58594 0.30859 1.4102-0.27734 1.8398-0.23438 0.17188-0.50781 0.25781-0.78125 0.25781zm-38.488 33.434h16.398v15.586h-16.398zm19.047-8.3047h16.398v23.891h-16.398z"/>
<text x="0.0" y="117.5" font-size="5.0" font-weight="bold" font-family="Arbeit Regular, Helvetica, Arial-Unicode, Arial, Sans-serif" fill="#000000">Created by pojok_icon</text><text x="0.0" y="122.5" font-size="5.0" font-weight="bold" font-family="Arbeit Regular, Helvetica, Arial-Unicode, Arial, Sans-serif" fill="#000000">from Noun Project</text></svg>