<svg width="293" height="74" viewBox="0 0 293 74" fill="none" xmlns="http://www.w3.org/2000/svg">
<path d="M100.76 60.84C94 60.84 88.84 58.96 85.28 55.2C81.76 51.44 80 46.1 80 39.18C80 35.74 80.54 32.68 81.62 30C82.7 27.28 84.18 25 86.06 23.16C87.94 21.28 90.18 19.86 92.78 18.9C95.38 17.94 98.2 17.46 101.24 17.46C103 17.46 104.6 17.6 106.04 17.88C107.48 18.12 108.74 18.42 109.82 18.78C110.9 19.1 111.8 19.44 112.52 19.8C113.24 20.16 113.76 20.44 114.08 20.64L111.38 28.2C110.1 27.52 108.6 26.94 106.88 26.46C105.2 25.98 103.28 25.74 101.12 25.74C99.68 25.74 98.26 25.98 96.86 26.46C95.5 26.94 94.28 27.72 93.2 28.8C92.16 29.84 91.32 31.2 90.68 32.88C90.04 34.56 89.72 36.6 89.72 39C89.72 40.92 89.92 42.72 90.32 44.4C90.76 46.04 91.44 47.46 92.36 48.66C93.32 49.86 94.56 50.82 96.08 51.54C97.6 52.22 99.44 52.56 101.6 52.56C102.96 52.56 104.18 52.48 105.26 52.32C106.34 52.16 107.3 51.98 108.14 51.78C108.98 51.54 109.72 51.28 110.36 51C111 50.72 111.58 50.46 112.1 50.22L114.68 57.72C113.36 58.52 111.5 59.24 109.1 59.88C106.7 60.52 103.92 60.84 100.76 60.84Z" fill="#001857"/>
<path d="M132.706 60.6C130.106 60.56 127.986 60.28 126.346 59.76C124.746 59.24 123.466 58.52 122.506 57.6C121.586 56.64 120.946 55.5 120.586 54.18C120.266 52.82 120.106 51.3 120.106 49.62V14.88L129.046 13.44V47.82C129.046 48.62 129.106 49.34 129.226 49.98C129.346 50.62 129.566 51.16 129.886 51.6C130.246 52.04 130.746 52.4 131.386 52.68C132.026 52.96 132.886 53.14 133.966 53.22L132.706 60.6Z" fill="#001857"/>
<path d="M137.591 44.46C137.591 41.66 138.011 39.22 138.851 37.14C139.731 35.02 140.871 33.26 142.271 31.86C143.671 30.46 145.271 29.4 147.071 28.68C148.911 27.96 150.791 27.6 152.711 27.6C157.191 27.6 160.731 28.98 163.331 31.74C165.931 34.46 167.231 38.48 167.231 43.8C167.231 44.32 167.211 44.9 167.171 45.54C167.131 46.14 167.091 46.68 167.051 47.16H146.771C146.971 49 147.831 50.46 149.351 51.54C150.871 52.62 152.911 53.16 155.471 53.16C157.111 53.16 158.711 53.02 160.271 52.74C161.871 52.42 163.171 52.04 164.171 51.6L165.371 58.86C164.891 59.1 164.251 59.34 163.451 59.58C162.651 59.82 161.751 60.02 160.751 60.18C159.791 60.38 158.751 60.54 157.631 60.66C156.511 60.78 155.391 60.84 154.271 60.84C151.431 60.84 148.951 60.42 146.831 59.58C144.751 58.74 143.011 57.6 141.611 56.16C140.251 54.68 139.231 52.94 138.551 50.94C137.911 48.94 137.591 46.78 137.591 44.46ZM158.591 41.04C158.551 40.28 158.411 39.54 158.171 38.82C157.971 38.1 157.631 37.46 157.151 36.9C156.711 36.34 156.131 35.88 155.411 35.52C154.731 35.16 153.871 34.98 152.831 34.98C151.831 34.98 150.971 35.16 150.251 35.52C149.531 35.84 148.931 36.28 148.451 36.84C147.971 37.4 147.591 38.06 147.311 38.82C147.071 39.54 146.891 40.28 146.771 41.04H158.591Z" fill="#001857"/>
<path d="M174.13 29.52C175.65 29.08 177.61 28.68 180.01 28.32C182.41 27.92 184.93 27.72 187.57 27.72C190.25 27.72 192.47 28.08 194.23 28.8C196.03 29.48 197.45 30.46 198.49 31.74C199.53 33.02 200.27 34.54 200.71 36.3C201.15 38.06 201.37 40.02 201.37 42.18V60H192.43V43.26C192.43 40.38 192.05 38.34 191.29 37.14C190.53 35.94 189.11 35.34 187.03 35.34C186.39 35.34 185.71 35.38 184.99 35.46C184.27 35.5 183.63 35.56 183.07 35.64V60H174.13V29.52Z" fill="#001857"/>
<path d="M209.162 20.58L218.102 19.14V28.44H228.842V35.88H218.102V46.98C218.102 48.86 218.422 50.36 219.062 51.48C219.742 52.6 221.082 53.16 223.082 53.16C224.042 53.16 225.022 53.08 226.022 52.92C227.062 52.72 228.002 52.46 228.842 52.14L230.102 59.1C229.022 59.54 227.822 59.92 226.502 60.24C225.182 60.56 223.562 60.72 221.642 60.72C219.202 60.72 217.182 60.4 215.582 59.76C213.982 59.08 212.702 58.16 211.742 57C210.782 55.8 210.102 54.36 209.702 52.68C209.342 51 209.162 49.14 209.162 47.1V20.58Z" fill="#001857"/>
<path d="M247.01 53.76C247.89 53.76 248.73 53.74 249.53 53.7C250.33 53.66 250.97 53.6 251.45 53.52V46.74C251.09 46.66 250.55 46.58 249.83 46.5C249.11 46.42 248.45 46.38 247.85 46.38C247.01 46.38 246.21 46.44 245.45 46.56C244.73 46.64 244.09 46.82 243.53 47.1C242.97 47.38 242.53 47.76 242.21 48.24C241.89 48.72 241.73 49.32 241.73 50.04C241.73 51.44 242.19 52.42 243.11 52.98C244.07 53.5 245.37 53.76 247.01 53.76ZM246.29 27.6C248.93 27.6 251.13 27.9 252.89 28.5C254.65 29.1 256.05 29.96 257.09 31.08C258.17 32.2 258.93 33.56 259.37 35.16C259.81 36.76 260.03 38.54 260.03 40.5V59.1C258.75 59.38 256.97 59.7 254.69 60.06C252.41 60.46 249.65 60.66 246.41 60.66C244.37 60.66 242.51 60.48 240.83 60.12C239.19 59.76 237.77 59.18 236.57 58.38C235.37 57.54 234.45 56.46 233.81 55.14C233.17 53.82 232.85 52.2 232.85 50.28C232.85 48.44 233.21 46.88 233.93 45.6C234.69 44.32 235.69 43.3 236.93 42.54C238.17 41.78 239.59 41.24 241.19 40.92C242.79 40.56 244.45 40.38 246.17 40.38C247.33 40.38 248.35 40.44 249.23 40.56C250.15 40.64 250.89 40.76 251.45 40.92V40.08C251.45 38.56 250.99 37.34 250.07 36.42C249.15 35.5 247.55 35.04 245.27 35.04C243.75 35.04 242.25 35.16 240.77 35.4C239.29 35.6 238.01 35.9 236.93 36.3L235.79 29.1C236.31 28.94 236.95 28.78 237.71 28.62C238.51 28.42 239.37 28.26 240.29 28.14C241.21 27.98 242.17 27.86 243.17 27.78C244.21 27.66 245.25 27.6 246.29 27.6Z" fill="#001857"/>
<path d="M266.614 44.22C266.614 41.94 266.974 39.8 267.694 37.8C268.454 35.76 269.534 34 270.934 32.52C272.334 31 274.034 29.8 276.034 28.92C278.034 28.04 280.314 27.6 282.874 27.6C284.554 27.6 286.094 27.76 287.494 28.08C288.894 28.36 290.254 28.78 291.574 29.34L289.714 36.48C288.874 36.16 287.954 35.88 286.954 35.64C285.954 35.4 284.834 35.28 283.594 35.28C280.954 35.28 278.974 36.1 277.654 37.74C276.374 39.38 275.734 41.54 275.734 44.22C275.734 47.06 276.334 49.26 277.534 50.82C278.774 52.38 280.914 53.16 283.954 53.16C285.034 53.16 286.194 53.06 287.434 52.86C288.674 52.66 289.814 52.34 290.854 51.9L292.114 59.22C291.074 59.66 289.774 60.04 288.214 60.36C286.654 60.68 284.934 60.84 283.054 60.84C280.174 60.84 277.694 60.42 275.614 59.58C273.534 58.7 271.814 57.52 270.454 56.04C269.134 54.56 268.154 52.82 267.514 50.82C266.914 48.78 266.614 46.58 266.614 44.22Z" fill="#001857"/>
<path fill-rule="evenodd" clip-rule="evenodd" d="M57.4867 28.0684C57.471 28.037 56.9992 22.3053 56.9992 22.2896C56.6296 24.6011 54.9468 29.0826 54.1919 30.7101C50.4095 38.9027 44.6455 45.6092 37.4109 50.9792C35.2013 52.6224 32.8579 54.0848 30.3966 55.3113L29.7911 55.6179C29.1699 56.7186 28.1869 57.67 27.0782 58.3383C26.8816 60.5083 26.0402 62.6625 24.9786 64.5574C24.3023 65.7524 23.6025 66.7588 22.824 67.5686C25.6785 68.52 28.7374 68.9996 31.9929 69.031C39.9116 69.1018 46.6192 66.405 52.2181 60.807C57.8013 55.2248 60.4906 48.534 60.3884 40.6481C60.3491 36.0486 59.3818 31.8659 57.4867 28.0684ZM34.3048 64.9112C42.5223 63.2129 51.1801 57.7722 56.0949 43.2977C53.8773 56.0503 47.264 63.7004 34.3048 64.9112Z" fill="#007CFB"/>
<path fill-rule="evenodd" clip-rule="evenodd" d="M24.9943 14.8676L24.6483 18.1226L28.2262 14.5453L24.9943 14.8676ZM14.8738 15.2922L15.2513 11.7699L18.7506 11.4239L15.2277 11.0465L14.8738 7.54781L14.4964 11.0701L10.9971 11.4161L14.52 11.7935L14.8738 15.2922ZM18.9865 10.1895L19.2067 8.13748L21.2433 7.93306L19.1909 7.71292L18.9865 5.67658L18.7663 7.72864L16.7296 7.93306L18.782 8.15321L18.9865 10.1895ZM27.432 34.9008H31.6233V30.7102H27.432V34.9008ZM27.432 29.7745H31.6233V25.5839H27.432V29.7745ZM32.5591 29.7745H36.7504V25.5839H32.5591V29.7745ZM32.5591 34.9008H36.7504V30.7102H32.5591V34.9008ZM22.8632 32.5814C22.8632 31.064 21.6287 29.8296 20.111 29.8296C18.5933 29.8296 17.3587 31.064 17.3587 32.5814C17.3587 34.0988 18.5933 35.3332 20.111 35.3332C21.6287 35.3332 22.8632 34.1067 22.8632 32.5814ZM21.5028 30.9224C21.9747 31.3234 22.2813 31.9131 22.2813 32.5814C22.2813 33.2497 21.9825 33.8472 21.5028 34.2403C21.7781 33.7765 21.9432 33.2025 21.9432 32.5814C21.9432 31.9603 21.7781 31.3863 21.5028 30.9224ZM51.4789 20.5285C51.1171 19.9074 50.6925 19.3255 50.2443 18.7595L31.4896 0L11.4532 20.0253C5.85428 25.6311 3.17279 32.3534 3.25929 40.2786C3.27502 42.079 3.43229 43.8166 3.73111 45.4913C5.17801 47.6377 9.6524 48.1094 12.0272 48.2745C11.1308 45.8844 10.7061 43.3056 10.7612 40.5616C10.8791 34.775 13.0102 29.7667 17.1071 25.6704L18.0979 24.6798V17.2971H22.7767V20.0017L24.5461 18.2327L24.2158 14.8991L20.3626 14.4902L24.1843 14.1128L24.5932 10.2603L24.9707 14.0814L28.3363 14.4431L32.0951 10.6849L46.8944 25.4739C47.9324 26.5117 48.8446 27.6124 49.6152 28.7682C51.4317 25.7726 52.6663 22.5648 51.4789 20.5285ZM22.0769 36.4103C19.128 36.4103 16.7375 38.8005 16.7375 41.7488C16.7375 44.6972 19.128 47.0873 22.0769 47.0873C25.0257 47.0873 27.4163 44.6972 27.4163 41.7488C27.4163 38.8005 25.0257 36.4103 22.0769 36.4103ZM24.7741 44.9724C25.3088 44.0761 25.6312 42.9596 25.6312 41.7488C25.6312 40.538 25.3088 39.4216 24.7741 38.5253C25.6941 39.2958 26.2839 40.4516 26.2839 41.7488C26.276 43.0461 25.6941 44.2019 24.7741 44.9724ZM15.0547 35.1524C14.2447 35.1524 13.5842 35.8128 13.5842 36.6226C13.5842 37.4324 14.2447 38.0929 15.0547 38.0929C15.8646 38.0929 16.5252 37.4324 16.5252 36.6226C16.5252 35.8049 15.8725 35.1524 15.0547 35.1524ZM15.8017 37.5032C15.9511 37.2595 16.0376 36.9528 16.0376 36.6147C16.0376 36.2845 15.9511 35.9779 15.8017 35.7263C16.0534 35.9386 16.2185 36.2531 16.2185 36.6147C16.2106 36.9764 16.0534 37.2909 15.8017 37.5032Z" fill="#007CFB"/>
<path d="M14.984 49.9885C5.05223 49.6976 0.703656 48.0544 1.51361 40.9862C-2.54401 48.4397 2.01688 53.4951 9.7232 54.36C6.86085 54.132 4.24228 53.8961 0.459885 50.476C2.57519 58.3776 7.22258 61.5933 15.3614 58.1575C12.5934 59.4233 10.0613 60.5555 4.431 59.0538C5.59481 62.3245 10.5567 65.8625 15.3535 63.5982C13.6707 64.6753 12.2238 64.6596 9.69175 65.0291C13.0967 67.8517 17.3509 69.6679 20.9839 64.8169C19.7886 66.633 19.2303 67.1441 16.2972 68.4492C18.9236 68.5279 21.2276 68.0011 23.6103 63.779C25.4819 60.4533 26.3233 56.8052 24.6719 53.8411C22.9183 50.9084 19.3011 50.1143 14.984 49.9885ZM12.4912 51.5531C15.7467 51.4195 17.3745 51.4195 20.1346 52.929C17.8463 51.8755 14.9132 51.4667 12.4912 51.5531Z" fill="#76B80A"/>
<path d="M51.7463 2.90906C42.5065 11.1802 49.8197 14.5453 52.8393 19.7344C56.3307 25.7255 45.2273 38.4074 37.4502 44.1783C34.2576 46.5448 30.9628 48.4632 27.7308 49.8785C29.0205 50.4839 29.9248 51.5924 29.6967 53.904C31.9693 52.7718 34.2419 51.3723 36.4752 49.7133C43.7962 44.2726 49.2299 37.7155 52.7607 30.0497C54.011 27.353 54.9074 24.7977 55.45 22.3761C56.9756 16.0863 56.8497 9.62346 53.7593 6.84807C58.1551 9.94582 57.125 18.445 56.5588 21.0474C65.9558 12.4853 55.2141 6.52572 51.7463 2.90906Z" fill="#76B80A"/>
<path d="M22.7374 50.9006C23.9091 51.5689 24.8606 52.3708 25.4111 53.4165C26.0401 54.4229 26.2682 55.6415 26.2525 56.9939C31.5447 53.8254 28.124 47.9129 22.7374 50.9006Z" fill="#76B80A"/>
<path d="M33.7465 74C42.7972 74 50.1342 73.567 50.1342 73.0329C50.1342 72.4988 42.7972 72.0659 33.7465 72.0659C24.6958 72.0659 17.3588 72.4988 17.3588 73.0329C17.3588 73.567 24.6958 74 33.7465 74Z" fill="#DCDEE0"/>
</svg>
