<svg width="54" height="84" viewBox="0 0 54 84" fill="none" xmlns="http://www.w3.org/2000/svg">
<path d="M26.8953 84C7.15145 83.9102 -4.28697 64.2053 1.50613 45.938C6.88544 28.9583 20.6884 16.5604 26.8953 0C27.1022 0.539037 27.4273 1.10802 27.5455 1.70695C33.6638 18.8663 49.0628 31.1144 53.2303 49.3219C57.2204 66.8706 44.8362 83.8802 26.8953 84Z" fill="#007CFB"/>
<path d="M20.8323 42.7064L14.3655 49.1691C14.1314 49.4055 14 49.7247 14 50.0574C14 50.39 14.1314 50.7093 14.3655 50.9456C14.6048 51.1741 14.9229 51.3016 15.2537 51.3016C15.5846 51.3016 15.9027 51.1741 16.142 50.9456L16.4112 50.6763V53.5781L15.2497 55.9052C15.2189 55.9664 15.2042 56.0344 15.2071 56.1029C15.2099 56.1713 15.2303 56.2379 15.2661 56.2963C15.3019 56.3547 15.3521 56.403 15.4118 56.4365C15.4716 56.4701 15.5389 56.4878 15.6074 56.488H16.4112V62.1148C16.4112 62.3279 16.4959 62.5324 16.6467 62.6832C16.7974 62.8339 17.0019 62.9186 17.2151 62.9186H26.0572C26.2703 62.9186 26.4748 62.8339 26.6255 62.6832C26.7763 62.5324 26.861 62.3279 26.861 62.1148V56.488H27.6648C27.7333 56.4878 27.8006 56.4701 27.8604 56.4365C27.9201 56.403 27.9703 56.3547 28.0061 56.2963C28.042 56.2379 28.0623 56.1713 28.0652 56.1029C28.068 56.0344 28.0533 55.9664 28.0225 55.9052L26.861 53.5781V50.5758L27.2267 50.9456C27.463 51.1797 27.7823 51.3111 28.1149 51.3111C28.4476 51.3111 28.7669 51.1797 29.0032 50.9456C29.2373 50.7093 29.3687 50.39 29.3687 50.0574C29.3687 49.7247 29.2373 49.4055 29.0032 49.1691L22.5364 42.7064C22.3103 42.4806 22.0039 42.3538 21.6843 42.3538C21.3648 42.3538 21.0584 42.4806 20.8323 42.7064ZM20.8323 62.1148H18.8227V58.8995H20.8323V62.1148ZM26.0572 62.1148H21.6361V58.4975C21.6361 58.3909 21.5938 58.2887 21.5184 58.2133C21.443 58.138 21.3408 58.0956 21.2342 58.0956H18.4208C18.3142 58.0956 18.212 58.138 18.1366 58.2133C18.0612 58.2887 18.0189 58.3909 18.0189 58.4975V62.1148H17.2151V56.488H26.0572V62.1148ZM27.0137 55.6842H16.2585L17.0623 54.0765H26.2099L27.0137 55.6842ZM17.2151 53.2727V49.8725L21.6843 45.3992L26.0572 49.772V53.2727H17.2151ZM28.4325 50.3749C28.3476 50.4579 28.2336 50.5043 28.1149 50.5043C27.9963 50.5043 27.8823 50.4579 27.7974 50.3749L22.2551 44.8325C22.1799 44.758 22.0909 44.6991 21.9929 44.6591C21.895 44.6191 21.7901 44.5988 21.6843 44.5994C21.4721 44.5992 21.2684 44.683 21.1176 44.8325L15.5712 50.3749C15.4864 50.4579 15.3724 50.5043 15.2537 50.5043C15.1351 50.5043 15.0211 50.4579 14.9362 50.3749C14.8942 50.3334 14.8608 50.2839 14.838 50.2294C14.8152 50.1749 14.8035 50.1164 14.8035 50.0574C14.8035 49.9983 14.8152 49.9398 14.838 49.8853C14.8608 49.8308 14.8942 49.7814 14.9362 49.7399L21.399 43.2731C21.4363 43.2354 21.4808 43.2055 21.5298 43.1851C21.5788 43.1647 21.6313 43.1542 21.6843 43.1542C21.7374 43.1542 21.7899 43.1647 21.8389 43.1851C21.8879 43.2055 21.9323 43.2354 21.9697 43.2731L28.4325 49.7399C28.4745 49.7814 28.5079 49.8308 28.5307 49.8853C28.5535 49.9398 28.5652 49.9983 28.5652 50.0574C28.5652 50.1164 28.5535 50.1749 28.5307 50.2294C28.5079 50.2839 28.4745 50.3334 28.4325 50.3749Z" fill="white"/>
<path d="M21.6359 49.6556C21.8231 49.6556 22.0077 49.612 22.1751 49.5283C22.3426 49.4446 22.4882 49.323 22.6005 49.1733C22.7128 49.0235 22.7887 48.8497 22.8222 48.6655C22.8557 48.4814 22.8458 48.2919 22.7934 48.1122L22.0378 48.3373C22.044 48.3746 22.044 48.4126 22.0378 48.4498C22.0378 48.5564 21.9955 48.6587 21.9201 48.734C21.8447 48.8094 21.7425 48.8517 21.6359 48.8517C21.5293 48.8517 21.4271 48.8094 21.3517 48.734C21.2763 48.6587 21.234 48.5564 21.234 48.4498C21.2314 48.3861 21.2441 48.3227 21.2709 48.2648C21.2977 48.2069 21.3379 48.1562 21.3882 48.1169C21.4384 48.0777 21.4973 48.0509 21.56 48.0389C21.6226 48.0269 21.6872 48.03 21.7485 48.0479L21.9735 47.2762C21.8631 47.2494 21.7494 47.2385 21.6359 47.2441C21.3161 47.2441 21.0094 47.3711 20.7833 47.5972C20.5572 47.8234 20.4302 48.1301 20.4302 48.4498C20.4302 48.7696 20.5572 49.0763 20.7833 49.3024C21.0094 49.5285 21.3161 49.6556 21.6359 49.6556Z" fill="white"/>
<path d="M22.8419 60.9091H24.8514C24.958 60.9091 25.0602 60.8668 25.1356 60.7914C25.211 60.716 25.2533 60.6138 25.2533 60.5072V58.4976C25.2533 58.391 25.211 58.2888 25.1356 58.2134C25.0602 58.138 24.958 58.0957 24.8514 58.0957H22.8419C22.7353 58.0957 22.633 58.138 22.5577 58.2134C22.4823 58.2888 22.4399 58.391 22.4399 58.4976V60.5072C22.4399 60.6138 22.4823 60.716 22.5577 60.7914C22.633 60.8668 22.7353 60.9091 22.8419 60.9091ZM23.2438 58.8995H24.4495V60.1053H23.2438V58.8995Z" fill="white"/>
<path d="M34.8991 61.7129V51.4279C35.4924 51.1879 36.0006 50.7763 36.3586 50.2457C36.7166 49.7151 36.9081 49.0898 36.9086 48.4497V45.2344C36.9086 45.1278 36.8663 45.0256 36.7909 44.9502C36.7155 44.8749 36.6133 44.8325 36.5067 44.8325H30.8799C30.7733 44.8325 30.6711 44.8749 30.5957 44.9502C30.5204 45.0256 30.478 45.1278 30.478 45.2344V48.4497C30.4785 49.0898 30.67 49.7151 31.028 50.2457C31.386 50.7763 31.8942 51.1879 32.4876 51.4279V61.7129C32.4876 62.0326 32.6146 62.3393 32.8407 62.5655C33.0669 62.7916 33.3735 62.9186 33.6933 62.9186C34.0131 62.9186 34.3198 62.7916 34.5459 62.5655C34.772 62.3393 34.8991 62.0326 34.8991 61.7129ZM31.318 48.8516C31.2958 48.7188 31.2837 48.5844 31.2819 48.4497V45.6363H32.0857V48.0478H32.8895V45.6363H33.6933V48.0478H34.4972V45.6363H34.8991V46.8421H35.7029V45.6363H36.1048V48.4497C36.1029 48.5844 36.0908 48.7188 36.0686 48.8516H31.318ZM31.6074 49.6555H35.7793C35.5673 50.0209 35.263 50.3242 34.8969 50.5351C34.5308 50.746 34.1158 50.8569 33.6933 50.8569C33.2709 50.8569 32.8558 50.746 32.4897 50.5351C32.1236 50.3242 31.8194 50.0209 31.6074 49.6555ZM34.0952 61.7129C34.0952 61.8195 34.0529 61.9217 33.9775 61.9971C33.9022 62.0724 33.7999 62.1148 33.6933 62.1148C33.5867 62.1148 33.4845 62.0724 33.4091 61.9971C33.3338 61.9217 33.2914 61.8195 33.2914 61.7129V53.2727H34.0952V61.7129ZM34.0952 52.4689H33.2914V51.6369C33.558 51.6744 33.8286 51.6744 34.0952 51.6369V52.4689Z" fill="white"/>
<path d="M29.2724 38H27.6648C27.5582 38 27.456 38.0423 27.3806 38.1177C27.3052 38.1931 27.2629 38.2953 27.2629 38.4019V39.2057H26.459C26.3524 39.2057 26.2502 39.2481 26.1748 39.3235C26.0995 39.3988 26.0571 39.5011 26.0571 39.6077V41.2153C26.0571 41.3219 26.0995 41.4241 26.1748 41.4995C26.2502 41.5749 26.3524 41.6172 26.459 41.6172H27.2629V42.421C27.2629 42.5276 27.3052 42.6299 27.3806 42.7052C27.456 42.7806 27.5582 42.823 27.6648 42.823H29.2724C29.379 42.823 29.4813 42.7806 29.5566 42.7052C29.632 42.6299 29.6743 42.5276 29.6743 42.421V41.6172H30.4782C30.5848 41.6172 30.687 41.5749 30.7624 41.4995C30.8377 41.4241 30.8801 41.3219 30.8801 41.2153V39.6077C30.8801 39.5011 30.8377 39.3988 30.7624 39.3235C30.687 39.2481 30.5848 39.2057 30.4782 39.2057H29.6743V38.4019C29.6743 38.2953 29.632 38.1931 29.5566 38.1177C29.4813 38.0423 29.379 38 29.2724 38ZM30.0763 40.0096V40.8134H29.2724C29.1658 40.8134 29.0636 40.8557 28.9882 40.9311C28.9129 41.0065 28.8705 41.1087 28.8705 41.2153V42.0191H28.0667V41.2153C28.0667 41.1087 28.0244 41.0065 27.949 40.9311C27.8736 40.8557 27.7714 40.8134 27.6648 40.8134H26.861V40.0096H27.6648C27.7714 40.0096 27.8736 39.9672 27.949 39.8918C28.0244 39.8165 28.0667 39.7142 28.0667 39.6077V38.8038H28.8705V39.6077C28.8705 39.7142 28.9129 39.8165 28.9882 39.8918C29.0636 39.9672 29.1658 40.0096 29.2724 40.0096H30.0763Z" fill="white"/>
<path d="M35.7028 39.2058V40.0096H34.8989V40.8135H35.7028V41.6173H36.5066V40.8135H37.3104V40.0096H36.5066V39.2058H35.7028Z" fill="white"/>
<path d="M36.9088 54.4785V55.2823H36.105V56.0862H36.9088V56.89H37.7126V56.0862H38.5165V55.2823H37.7126V54.4785H36.9088Z" fill="white"/>
<path d="M23.2439 50.4592C22.9464 50.461 22.6601 50.5727 22.44 50.7727C22.219 50.575 21.9328 50.4657 21.6362 50.4657C21.3396 50.4657 21.0534 50.575 20.8324 50.7727C20.6123 50.5727 20.326 50.461 20.0286 50.4592C19.7088 50.4592 19.4021 50.5863 19.176 50.8124C18.9498 51.0385 18.8228 51.3452 18.8228 51.665H18.4209V52.4688H25.2534V51.665H24.4496C24.4496 51.3452 24.3226 51.0385 24.0964 50.8124C23.8703 50.5863 23.5636 50.4592 23.2439 50.4592ZM19.6266 51.665C19.6266 51.5584 19.669 51.4561 19.7444 51.3808C19.8197 51.3054 19.922 51.2631 20.0286 51.2631C20.1351 51.2631 20.2374 51.3054 20.3127 51.3808C20.3881 51.4561 20.4305 51.5584 20.4305 51.665H19.6266ZM21.2343 51.665C21.2343 51.5584 21.2766 51.4561 21.352 51.3808C21.4274 51.3054 21.5296 51.2631 21.6362 51.2631C21.7428 51.2631 21.845 51.3054 21.9204 51.3808C21.9958 51.4561 22.0381 51.5584 22.0381 51.665H21.2343ZM22.8419 51.665C22.8419 51.5584 22.8843 51.4561 22.9597 51.3808C23.035 51.3054 23.1373 51.2631 23.2439 51.2631C23.3504 51.2631 23.4527 51.3054 23.528 51.3808C23.6034 51.4561 23.6458 51.5584 23.6458 51.665H22.8419Z" fill="white"/>
</svg>
