<svg width="54" height="84" viewBox="0 0 54 84" fill="none" xmlns="http://www.w3.org/2000/svg">
<path d="M26.8953 84C7.15145 83.9102 -4.28697 64.2053 1.50613 45.938C6.88544 28.9583 20.6884 16.5604 26.8953 0C27.1022 0.539037 27.4273 1.10802 27.5455 1.70695C33.6638 18.8663 49.0628 31.1144 53.2303 49.3219C57.2204 66.8706 44.8362 83.8802 26.8953 84Z" fill="#007CFB"/>
<path d="M14.8978 51.2511H15.3298V66.1015C15.3298 66.5985 15.7328 67.0015 16.2299 67.0015H31.5303C32.0273 67.0015 32.4303 66.5985 32.4303 66.1015V58.2038C32.4303 57.9552 32.2288 57.7538 31.9803 57.7538C31.7317 57.7538 31.5303 57.9552 31.5303 58.2038V66.1015H30.178V62.0514C30.178 60.5602 28.9691 59.3513 27.4779 59.3513C25.9867 59.3513 24.7778 60.5602 24.7778 62.0514V66.1015H16.2299V51.2511H22.7505C22.9991 51.2511 23.2006 51.0496 23.2006 50.8011C23.2006 50.5525 22.9991 50.3511 22.7505 50.3511H15.7884C15.7853 50.3511 15.783 50.3511 15.7799 50.3511C15.7767 50.3511 15.7745 50.3511 15.7713 50.3511H14.8956L23.8778 43.7089L26.8614 45.9184C27.0612 46.0663 27.3431 46.0242 27.491 45.8244C27.6388 45.6246 27.5967 45.3427 27.3969 45.1948L24.4138 42.9875C24.095 42.7535 23.6611 42.7535 23.3423 42.9875L14.3601 49.631C14.0505 49.8632 13.924 50.2673 14.0459 50.6346C14.1678 51.0019 14.5109 51.2501 14.8978 51.2511ZM25.6779 62.0514C25.6779 61.4083 26.021 60.814 26.5779 60.4925C27.1348 60.1709 27.821 60.1709 28.3779 60.4925C28.9349 60.814 29.278 61.4083 29.278 62.0514V66.1015H25.6779V62.0514Z" fill="white"/>
<path d="M18.0276 64.7512H22.5278C22.7763 64.7512 22.9778 64.5497 22.9778 64.3012V59.8011C22.9778 59.5526 22.7763 59.3511 22.5278 59.3511H18.0276C17.7791 59.3511 17.5776 59.5526 17.5776 59.8011V64.3012C17.5776 64.5497 17.7791 64.7512 18.0276 64.7512ZM18.4777 62.5012H19.8277V63.8512H18.4777V62.5012ZM20.7277 63.8512V62.5012H22.0778V63.8512H20.7277ZM22.0778 61.6011H20.7277V60.2511H22.0778V61.6011ZM19.8277 60.2511V61.6011H18.4777V60.2511H19.8277Z" fill="white"/>
<path d="M22.9778 53.0511C22.9778 52.8026 22.7763 52.6011 22.5278 52.6011H18.0276C17.7791 52.6011 17.5776 52.8026 17.5776 53.0511V57.5512C17.5776 57.7997 17.7791 58.0012 18.0276 58.0012H22.5278C22.7763 58.0012 22.9778 57.7997 22.9778 57.5512V53.0511ZM22.0778 54.8511H20.7277V53.5011H22.0778V54.8511ZM19.8277 53.5011V54.8511H18.4777V53.5011H19.8277ZM18.4777 55.7512H19.8277V57.1012H18.4777V55.7512ZM20.7277 57.1012V55.7512H22.0778V57.1012H20.7277Z" fill="white"/>
<path d="M27.928 64.3013C28.1766 64.3013 28.3781 64.0998 28.3781 63.8513V62.9512C28.3781 62.7027 28.1766 62.5012 27.928 62.5012C27.6795 62.5012 27.478 62.7027 27.478 62.9512V63.8513C27.478 63.9706 27.5254 64.0851 27.6098 64.1695C27.6942 64.2539 27.8087 64.3013 27.928 64.3013Z" fill="white"/>
<path d="M28.1109 46.4885L27.7923 46.8071C27.6739 46.9261 27.5917 47.0762 27.5551 47.24L24.815 47.9623C24.7376 47.9825 24.6671 48.023 24.6107 48.0797C24.0513 48.6386 23.8844 49.7502 24.1634 51.0534C24.2043 51.2433 24.2534 51.4323 24.3123 51.62V51.6312C24.3123 51.6348 24.3209 51.647 24.3236 51.6555C25.0652 54.0373 26.9313 55.9017 29.3137 56.6412C29.3205 56.6412 29.325 56.6484 29.3322 56.6506C29.3394 56.6529 29.3421 56.6506 29.3475 56.6506C29.5338 56.7073 29.7215 56.7578 29.91 56.7983C30.2967 56.8832 30.6913 56.9276 31.0872 56.9306C31.7386 56.9778 32.3828 56.7699 32.8837 56.3509C32.9404 56.2946 32.981 56.224 33.0011 56.1466L33.7212 53.4065C33.885 53.3696 34.0351 53.2874 34.1545 53.1694L34.4727 52.8508C35.4527 51.8702 35.6777 50.3646 35.0271 49.1404L40.1122 44.5165C40.9138 43.788 41.1787 42.6383 40.7768 41.6325C40.3749 40.6267 39.3906 39.9761 38.3077 40.0007C37.5975 40.0151 36.9249 40.3224 36.4491 40.8498L31.823 45.9363C30.5988 45.2843 29.0923 45.5084 28.1109 46.4885ZM32.1659 55.7844C31.8401 56.0143 31.1093 56.1358 30.0986 55.9194C30.0702 55.9131 30.0342 55.9036 30.0036 55.8964L30.4536 54.2431C30.4958 54.0879 30.4521 53.9221 30.3388 53.8079C30.2255 53.6938 30.06 53.6488 29.9045 53.6898C29.7491 53.7308 29.6273 53.8517 29.5851 54.0068L29.1432 55.6269C28.4211 55.3438 27.7536 54.9375 27.1703 54.4262L28.6801 52.9165C28.8507 52.7399 28.8482 52.4592 28.6746 52.2856C28.5011 52.112 28.2204 52.1096 28.0438 52.2801L26.534 53.7899C26.0227 53.2067 25.6165 52.5392 25.3334 51.8171L26.9557 51.3752C27.1955 51.3099 27.3371 51.0626 27.2718 50.8228C27.2066 50.5829 26.9593 50.4414 26.7194 50.5066L25.0661 50.9567C25.0589 50.9261 25.0494 50.8901 25.0431 50.8617C24.8267 49.8505 24.9486 49.1202 25.1781 48.7943L27.8152 48.1009L32.8625 53.1482L32.1659 55.7844ZM33.8382 52.2162L33.5205 52.5348L28.4286 47.4434L28.7472 47.1253C29.6259 46.2466 31.0505 46.2466 31.9292 47.1253L33.8382 49.0342C34.7168 49.9129 34.7168 51.3375 33.8382 52.2162ZM37.1124 41.4556C37.5331 40.9938 38.1735 40.8008 38.7793 40.9531C39.3851 41.1054 39.858 41.5784 40.0103 42.1841C40.1626 42.7899 39.9696 43.4303 39.5079 43.851L34.4898 48.4127L32.5507 46.4736L37.1124 41.4556Z" fill="white"/>
<path d="M34.2124 57.326C34.2124 58.1959 34.9176 58.9011 35.7874 58.9011C36.6573 58.9011 37.3625 58.1959 37.3625 57.326C37.3625 56.4561 36.6573 55.751 35.7874 55.751C34.9176 55.751 34.2124 56.4561 34.2124 57.326ZM36.4625 57.326C36.4625 57.6988 36.1602 58.001 35.7874 58.001C35.4146 58.001 35.1124 57.6988 35.1124 57.326C35.1124 56.9532 35.4146 56.651 35.7874 56.651C36.1602 56.651 36.4625 56.9532 36.4625 57.326Z" fill="white"/>
<path d="M28.1371 43.6008C29.0069 43.6008 29.7121 42.8956 29.7121 42.0257C29.7121 41.1559 29.0069 40.4507 28.1371 40.4507C27.2672 40.4507 26.562 41.1559 26.562 42.0257C26.562 42.8956 27.2672 43.6008 28.1371 43.6008ZM28.1371 41.3507C28.5099 41.3507 28.8121 41.6529 28.8121 42.0257C28.8121 42.3985 28.5099 42.7007 28.1371 42.7007C27.7643 42.7007 27.462 42.3985 27.462 42.0257C27.462 41.6529 27.7643 41.3507 28.1371 41.3507Z" fill="white"/>
<path d="M38.2625 50.801C38.014 50.801 37.8125 51.0025 37.8125 51.251V52.1511C37.8125 52.3996 38.014 52.6011 38.2625 52.6011C38.511 52.6011 38.7125 52.3996 38.7125 52.1511V51.251C38.7125 51.0025 38.511 50.801 38.2625 50.801Z" fill="white"/>
<path d="M37.8125 53.951V54.851C37.8125 55.0995 38.014 55.301 38.2625 55.301C38.511 55.301 38.7125 55.0995 38.7125 54.851V53.951C38.7125 53.7025 38.511 53.501 38.2625 53.501C38.014 53.501 37.8125 53.7025 37.8125 53.951Z" fill="white"/>
<path d="M40.0624 52.6011H39.1624C38.9139 52.6011 38.7124 52.8026 38.7124 53.0511C38.7124 53.2996 38.9139 53.5011 39.1624 53.5011H40.0624C40.311 53.5011 40.5124 53.2996 40.5124 53.0511C40.5124 52.8026 40.311 52.6011 40.0624 52.6011Z" fill="white"/>
<path d="M37.8123 53.0511C37.8123 52.8026 37.6108 52.6011 37.3622 52.6011H36.4622C36.2137 52.6011 36.0122 52.8026 36.0122 53.0511C36.0122 53.2996 36.2137 53.5011 36.4622 53.5011H37.3622C37.6108 53.5011 37.8123 53.2996 37.8123 53.0511Z" fill="white"/>
<path d="M19.9439 43.9189C20.1205 44.0894 20.4012 44.087 20.5748 43.9134C20.7483 43.7398 20.7508 43.4591 20.5802 43.2825L19.9052 42.6075C19.7286 42.437 19.448 42.4394 19.2744 42.613C19.1008 42.7866 19.0984 43.0673 19.2689 43.2438L19.9439 43.9189Z" fill="white"/>
<path d="M17.9185 41.8937C18.0951 42.0643 18.3758 42.0618 18.5494 41.8882C18.7229 41.7146 18.7254 41.434 18.5548 41.2574L17.8798 40.5824C17.7033 40.4118 17.4226 40.4143 17.249 40.5879C17.0754 40.7614 17.073 41.0421 17.2435 41.2187L17.9185 41.8937Z" fill="white"/>
<path d="M17.5617 44.0508C17.6811 44.0508 17.7955 44.0033 17.8799 43.9189L18.5549 43.2439C18.6719 43.1309 18.7188 42.9636 18.6776 42.8063C18.6365 42.6489 18.5136 42.5261 18.3562 42.4849C18.1989 42.4437 18.0316 42.4906 17.9186 42.6076L17.2436 43.2826C17.1149 43.4113 17.0764 43.6049 17.1461 43.773C17.2157 43.9411 17.3798 44.0508 17.5617 44.0508Z" fill="white"/>
<path d="M19.5866 42.0256C19.706 42.0255 19.8204 41.9781 19.9048 41.8937L20.5798 41.2187C20.7504 41.0421 20.7479 40.7614 20.5743 40.5879C20.4008 40.4143 20.1201 40.4118 19.9435 40.5824L19.2685 41.2574C19.1398 41.3861 19.1013 41.5796 19.171 41.7478C19.2406 41.9159 19.4047 42.0255 19.5866 42.0256Z" fill="white"/>
</svg>
